<svg xmlns="http://www.w3.org/2000/svg" width="42" height="38"><path fill="#fff" d="M22.933 14.451l-.753-.494a1.108 1.108 0 01-.319-1.535l2.31-3.523a1.108 1.108 0 011.535-.318l.753.493zm-9.979 13.147l-.698-.571a1.108 1.108 0 01-.156-1.559l2.668-3.261a1.108 1.108 0 011.56-.156l.697.57zM26.87 9.605l-3.215 5.224.33.329c.507.507.576 1.304.165 1.892l-4.183 5.977c-.42.6-1.216.802-1.871.475l-.468-.234-4.02 4.822 1.75.875a3.94 3.94 0 004.303-.511c2.18-1.834 5.505-4.852 6.807-7.195 1.15-2.07 2.167-4.4 2.828-6.017a3.915 3.915 0 00-.542-3.904c-.617-.781-1.334-1.55-1.884-1.733z"/><path fill="#fff" d="M3.59 17.775a.9.9 0 01-.893-1.011C3.84 7.614 11.667.714 20.903.714c9.233 0 17.06 6.9 18.205 16.05a.9.9 0 11-1.785.223C36.29 8.734 29.231 2.512 20.903 2.512c-8.33 0-15.39 6.222-16.423 14.475a.9.9 0 01-.892.788zm17.315 19.638c-9.286 0-17.12-6.944-18.222-16.153a.901.901 0 011.787-.214c.994 8.305 8.059 14.568 16.435 14.568 8.375 0 15.438-6.263 16.43-14.568a.891.891 0 011.002-.786.9.9 0 01.786 1c-1.101 9.21-8.933 16.153-18.218 16.153z"/><path fill="#fff" d="M1.449 25.247a.901.901 0 01-.747-1.4l2.137-3.194a.894.894 0 011.146-.305l3.308 1.638a.899.899 0 01-.798 1.612l-2.601-1.29-1.697 2.54a.898.898 0 01-.748.399zm36.774-7.471a.884.884 0 01-.398-.094l-3.308-1.638a.9.9 0 01.798-1.612l2.6 1.288 1.697-2.538a.899.899 0 011.248-.248.903.903 0 01.248 1.249l-2.136 3.194a.904.904 0 01-.749.399z"/></svg>