<svg xmlns="http://www.w3.org/2000/svg" width="26" height="25"><path fill="#1d1b19" d="M17.576 4.84h-3.31a.77.77 0 01-.77-.772V.76a.77.77 0 01.77-.77h3.31a.77.77 0 01.77.77v3.31a.77.77 0 01-.77.77zm6.791 0h-3.31a.77.77 0 01-.77-.772V.76a.77.77 0 01.77-.77h3.31a.77.77 0 01.77.77v3.31a.77.77 0 01-.77.77zm-6.791 6.79h-3.31a.77.77 0 01-.77-.77V7.55a.77.77 0 01.77-.77h3.31a.77.77 0 01.77.77v3.31a.77.77 0 01-.77.77zm6.791 0h-3.31a.77.77 0 01-.77-.77V7.55a.77.77 0 01.77-.77h3.31a.77.77 0 01.77.77v3.31a.77.77 0 01-.77.77zM4.188 4.84H.878a.77.77 0 01-.77-.772V.76a.77.77 0 01.77-.77h3.31a.77.77 0 01.77.77v3.31a.77.77 0 01-.77.77zm6.791 0h-3.31a.77.77 0 01-.77-.772V.76a.77.77 0 01.77-.77h3.31a.77.77 0 01.77.77v3.31a.77.77 0 01-.77.77zm-6.791 6.79H.878a.77.77 0 01-.77-.77V7.55a.77.77 0 01.77-.77h3.31a.77.77 0 01.77.77v3.31a.77.77 0 01-.77.77zm6.791 0h-3.31a.77.77 0 01-.77-.77V7.55a.77.77 0 01.77-.77h3.31a.77.77 0 01.77.77v3.31a.77.77 0 01-.77.77zm6.597 6.597h-3.31a.77.77 0 01-.77-.771v-3.31c0-.424.345-.77.77-.77h3.31a.77.77 0 01.77.77v3.31a.77.77 0 01-.77.77zm6.791 0h-3.31a.77.77 0 01-.77-.771v-3.31c0-.424.345-.77.77-.77h3.31a.77.77 0 01.77.77v3.31a.77.77 0 01-.77.77zm-6.791 6.791h-3.31a.77.77 0 01-.77-.771v-3.31c0-.424.345-.77.77-.77h3.31a.77.77 0 01.77.77v3.31a.77.77 0 01-.77.77zm6.791 0h-3.31a.77.77 0 01-.77-.771v-3.31c0-.424.345-.77.77-.77h3.31a.77.77 0 01.77.77v3.31a.77.77 0 01-.77.77zM4.188 18.227H.878a.77.77 0 01-.77-.771v-3.31c0-.424.345-.77.77-.77h3.31a.77.77 0 01.77.77v3.31a.77.77 0 01-.77.77zm6.791 0h-3.31a.77.77 0 01-.77-.771v-3.31c0-.424.345-.77.77-.77h3.31a.77.77 0 01.77.77v3.31a.77.77 0 01-.77.77zm-6.791 6.791H.878a.77.77 0 01-.77-.771v-3.31c0-.424.345-.77.77-.77h3.31a.77.77 0 01.77.77v3.31a.77.77 0 01-.77.77zm6.791 0h-3.31a.77.77 0 01-.77-.771v-3.31c0-.424.345-.77.77-.77h3.31a.77.77 0 01.77.77v3.31a.77.77 0 01-.77.77z"/></svg>