<svg xmlns="http://www.w3.org/2000/svg" width="48" height="39"><path fill="#fff" d="M31.147-.005c9.048 0 16.702 7.158 16.798 16.206a16.304 16.304 0 01-4.8 11.762 16.333 16.333 0 01-11.591 4.8h-7.046l-7.29 5.215a.81.81 0 01-1.281-.659v-4.572C7.105 32.502.02 25.273.02 16.38c0-4.53 1.84-8.625 4.799-11.584a16.345 16.345 0 0111.593-4.8zM41.52 26.338a13.954 13.954 0 004.12-9.632c.179-7.924-6.577-14.41-14.504-14.41H16.413c-4.81 0-9.256 2.39-11.965 6.61a13.325 13.325 0 00-1.936 5.09c-1.396 8.74 5.04 16.215 13.487 16.451l2.238.062v2.782c0 .472.533.747.917.472l4.618-3.3h7.782c3.765 0 7.307-1.465 9.967-4.125z"/><path fill="#fff" d="M35.08 12.924a7.065 7.065 0 01-1.483 5.496l-.043.051-.959.958-.034.025-5.41 5.411a4.505 4.505 0 01-6.379 0l-5.41-5.411-.034-.025-.958-.958-.043-.051a7.013 7.013 0 01-1.56-4.427 7.039 7.039 0 017.04-7.039c1.28 0 2.484.339 3.518.941.391.229.874.229 1.264 0a7.035 7.035 0 014.36-.89c3.111.356 5.673 2.824 6.131 5.919zm-3.417 3.842c.764-.976 1.085-2.205.899-3.469-.29-1.959-1.925-3.545-3.901-3.765a3.881 3.881 0 00-.543-.034 4.42 4.42 0 00-2.247.602 3.845 3.845 0 01-1.908.509c-.67 0-1.332-.178-1.908-.517a4.503 4.503 0 00-5.785 6.682l.73.721.033.026 5.537 5.546c.373.365.865.577 1.392.577.525 0 1.017-.212 1.39-.577l5.572-5.572zM11.737 36.952a1.18 1.18 0 11-2.36 0 1.18 1.18 0 012.36 0zm-3.923 0a1.18 1.18 0 11-2.36 0 1.18 1.18 0 012.36 0zm-3.922 0a1.18 1.18 0 11-2.36 0 1.18 1.18 0 012.36 0z"/></svg>