<svg xmlns="http://www.w3.org/2000/svg" width="40" height="41"><path fill="#1d1b19" d="M24.606 39.657a19.733 19.733 0 01-4.407.495C9.358 40.152.558 31.367.558 20.512c0-1.517.17-2.986.494-4.393l1.67 1.67a19.567 19.567 0 00-.2 2.722c0 9.758 7.918 17.677 17.677 17.677.928 0 1.84-.078 2.72-.2zm15.249-19.146c0 1.5-.17 2.97-.511 4.376l-1.654-1.654c.124-.882.2-1.794.2-2.722 0-9.774-7.917-17.692-17.691-17.692-.912 0-1.824.077-2.707.201l-1.67-1.655a18.638 18.638 0 014.377-.51c10.856 0 19.656 8.8 19.656 19.656z"/><path fill="#1d1b19" d="M8.779 28.355c.05.16.16.392.238.525.224.356 1.329 1.392 1.833 1.714 1.603 1.028 3.737 1.259 5.82.643 1.575-.468 2.779-1.042 4.402-2.091 2.042-1.33 3.147-2.19 4.568-3.568 2.134-2.071 3.33-3.813 4.443-6.486.825-1.973 1.294-3.428 1.378-4.246.055-.567-.14-1.805-.406-2.533-.364-1.007-1.175-2.162-1.833-2.61-.672-.447-2.19-.91-3.197-.965l-.665-.042-.252.217c-.168.154-.546.783-1.231 2.057-1.623 3.022-1.777 3.407-1.525 3.883.056.119.51.566 1 .986 1.448 1.245 1.7 1.504 1.7 1.714 0 .266-.888 2.008-1.434 2.82a13.474 13.474 0 01-1.966 2.336c-.958.924-2.33 1.924-3.4 2.484l-.251.126-.553-.504c-.707-.665-1.134-.938-1.875-1.203-.756-.273-.986-.26-2.03.139-.93.357-1.7.644-3.035 1.14-1.1.407-1.546.708-1.68 1.128-.118.398-.153 2.007-.05 2.336zM3.483 13.444l3.84-3.846c.619-.616 1.013-1.205 1.013-1.994 0-.948-.69-1.565-1.59-1.565-.956 0-1.561.747-1.688 1.737l-1.645-.26c.197-1.677 1.533-2.911 3.36-2.911 1.73 0 3.32 1.019 3.32 2.97 0 1.306-.716 2.21-1.603 3.07l-2.87 2.799h4.488v1.578H3.483zm12.787-.532h-4.6v-1.52l4.236-6.529h2.024v6.571h1.393v1.478H17.93v2.11h-1.66zm0-6.026h-.027l-2.827 4.548h2.855zm12.306 20.25h6.766v1.579l-3.981 8.58h-1.983l4.19-8.61h-4.992z"/></svg>