<svg xmlns="http://www.w3.org/2000/svg" viewBox="0 0 64.54 64.54"><defs><style>.cls-1{fill:#676767;}</style></defs><title>img1</title><g id="Слой_2" data-name="Слой 2"><g id="Layer_1" data-name="Layer 1"><path class="cls-1" d="M32.27,50.42a1.23,1.23,0,0,1-.9-.39L8.74,26a1.23,1.23,0,0,1,0-1.7L18.1,14.5a1.24,1.24,0,0,1,.89-.39H45.54a1.2,1.2,0,0,1,.89.39l9.36,9.76a1.24,1.24,0,0,1,0,1.7L33.17,50A1.24,1.24,0,0,1,32.27,50.42ZM11.34,25.13,32.27,47.39,53.2,25.13,45,16.58H19.52Z"/><path class="cls-1" d="M54.9,26.35H9.64a1.24,1.24,0,1,1,0-2.47H54.9a1.24,1.24,0,0,1,0,2.47Z"/><path class="cls-1" d="M32.27,50.42a1.23,1.23,0,0,1-1.1-.68L19.06,25.67a1.25,1.25,0,0,1,.07-1.24l6.49-9.76A1.23,1.23,0,1,1,27.68,16L21.59,25.2,33.37,48.63a1.23,1.23,0,0,1-.55,1.66A1.2,1.2,0,0,1,32.27,50.42Z"/><path class="cls-1" d="M32.27,50.42a1.23,1.23,0,0,1-1.1-1.79L43,25.2,36.86,16a1.23,1.23,0,1,1,2.06-1.36l6.48,9.76a1.23,1.23,0,0,1,.08,1.24L33.37,49.74A1.24,1.24,0,0,1,32.27,50.42Z"/><path class="cls-1" d="M32.27,64.54A32.27,32.27,0,1,1,64.54,32.27,32.31,32.31,0,0,1,32.27,64.54Zm0-62.07a29.8,29.8,0,1,0,29.8,29.8A29.84,29.84,0,0,0,32.27,2.47Z"/></g></g></svg>