<svg xmlns="http://www.w3.org/2000/svg" viewBox="0 0 64.54 64.54"><defs><style>.cls-1{fill:#c72b2b;}</style></defs><title>img2-active</title><g id="Слой_2" data-name="Слой 2"><g id="Layer_1" data-name="Layer 1"><path class="cls-1" d="M46,56.24a2,2,0,0,1-1.08-.34l-5.13-3.26-3.23,3.17a1.46,1.46,0,0,1-1.06.43,2.09,2.09,0,0,1-.89-.22,2.66,2.66,0,0,1-1.32-1.55l-1.09-2.58-1.08,2.58A2.66,2.66,0,0,1,29.76,56a2.09,2.09,0,0,1-.89.22,1.5,1.5,0,0,1-1.07-.43l-3.22-3.17-5.14,3.27a2,2,0,0,1-1.07.33,1.56,1.56,0,0,1-.9-.27,1.75,1.75,0,0,1-.61-1.88l5-19.51a4.14,4.14,0,0,1-2.59-1.46,4.77,4.77,0,0,1-.53-3.49,5,5,0,0,0,0-1.58,4.69,4.69,0,0,0-.89-1.18,5,5,0,0,1-1.68-3.22,5,5,0,0,1,1.67-3.21,4.55,4.55,0,0,0,.9-1.19,4.83,4.83,0,0,0,0-1.56,4.83,4.83,0,0,1,.53-3.51,4.84,4.84,0,0,1,3.17-1.58,5,5,0,0,0,1.49-.46,4.64,4.64,0,0,0,.88-1.25,4.89,4.89,0,0,1,2.51-2.56,3.1,3.1,0,0,1,.92-.14,6.33,6.33,0,0,1,2.53.72,4.87,4.87,0,0,0,1.53.51,4.87,4.87,0,0,0,1.53-.51,6.33,6.33,0,0,1,2.53-.72,3.1,3.1,0,0,1,.92.14,4.89,4.89,0,0,1,2.5,2.55,4.77,4.77,0,0,0,.89,1.26,5,5,0,0,0,1.48.46,4.84,4.84,0,0,1,3.18,1.58,4.88,4.88,0,0,1,.53,3.49,4.68,4.68,0,0,0,0,1.58,4.54,4.54,0,0,0,.89,1.19,5,5,0,0,1,1.68,3.21,5,5,0,0,1-1.67,3.21,4.55,4.55,0,0,0-.9,1.19,4.68,4.68,0,0,0,0,1.58,4.87,4.87,0,0,1-.53,3.49,4.38,4.38,0,0,1-2.78,1.5l4.95,19.47A1.75,1.75,0,0,1,46.86,56,1.56,1.56,0,0,1,46,56.24ZM35.4,53l3.73-2.76,5.41,2.54L40.1,35.84c-.12.18-.23.39-.34.58A5,5,0,0,1,37.25,39a3.16,3.16,0,0,1-.92.14,6.33,6.33,0,0,1-2.53-.72,4.87,4.87,0,0,0-1.53-.51,4.87,4.87,0,0,0-1.53.51l-.08,0Zm-6.47,0,1.9-5.3-2.67-8.53a3.17,3.17,0,0,1-.87-.14,5,5,0,0,1-2.51-2.55c-.15-.27-.32-.57-.49-.82l-4.5,17.12,5.41-3.42ZM32.27,35.2a6.57,6.57,0,0,1,2.62.74,4.69,4.69,0,0,0,1.44.49h.09c.29-.09.72-.84,1-1.34a9.91,9.91,0,0,1,.88-1.36,3.6,3.6,0,0,1,.75-.72,4.31,4.31,0,0,1,1.43-.66c.34-.1.7-.18,1-.26a3.89,3.89,0,0,0,1.59-.54,3.72,3.72,0,0,0,0-1.63,6.81,6.81,0,0,1,.1-2.69,6.28,6.28,0,0,1,1.47-2.16c.41-.45,1-1.08,1-1.41s-.56-.95-1-1.4a6.32,6.32,0,0,1-1.47-2.17,6.71,6.71,0,0,1-.1-2.67,3.82,3.82,0,0,0,0-1.65,3.71,3.71,0,0,0-1.56-.53,6.58,6.58,0,0,1-2.51-.92,6.48,6.48,0,0,1-1.63-2.08c-.29-.5-.72-1.25-1-1.35h-.09a4.69,4.69,0,0,0-1.44.49,6.57,6.57,0,0,1-2.62.74,6.52,6.52,0,0,1-2.62-.74,4.78,4.78,0,0,0-1.44-.49h-.09c-.29.1-.72.84-1,1.33a6.34,6.34,0,0,1-1.63,2.1,6.25,6.25,0,0,1-2.51.91,3.79,3.79,0,0,0-1.56.54,3.75,3.75,0,0,0,0,1.64,6.41,6.41,0,0,1-.1,2.68,6.24,6.24,0,0,1-1.46,2.17c-.41.45-1,1.07-1,1.4s.56,1,1,1.4a6.41,6.41,0,0,1,1.47,2.17,6.46,6.46,0,0,1,.1,2.69,3.69,3.69,0,0,0,0,1.63,3.79,3.79,0,0,0,1.57.54l.09,0c.28.06.57.12.85.2a4.52,4.52,0,0,1,1.56.7,3.6,3.6,0,0,1,.75.72A11,11,0,0,1,27.09,35c.31.55.74,1.29,1,1.38h.09a3.07,3.07,0,0,0,.94-.27l.5-.22A6.52,6.52,0,0,1,32.27,35.2Z"/><path class="cls-1" d="M32.27,64.54A32.27,32.27,0,1,1,64.54,32.27,32.31,32.31,0,0,1,32.27,64.54Zm0-62.07a29.8,29.8,0,1,0,29.8,29.8A29.84,29.84,0,0,0,32.27,2.47Z"/><polyline class="cls-1" points="32.92 29.66 32.92 19.14 29.15 22.22"/></g></g></svg>