<svg xmlns="http://www.w3.org/2000/svg" viewBox="0 0 64.54 64.54"><defs><style>.cls-1{fill:#cc2128;}.cls-2{fill:none;stroke:#cc2128;stroke-linecap:round;stroke-linejoin:round;stroke-width:2.63px;}</style></defs><title>img3-active</title><g id="Слой_2" data-name="Слой 2"><g id="Layer_1" data-name="Layer 1"><path class="cls-1" d="M32.27,64.54A32.27,32.27,0,1,1,64.54,32.27,32.31,32.31,0,0,1,32.27,64.54Zm0-62.07a29.8,29.8,0,1,0,29.8,29.8A29.84,29.84,0,0,0,32.27,2.47Z"/><path class="cls-2" d="M46.17,27c-.52,3.27-11.31,18.58-15.24,20.91-4.46,2.63-12.3-2.74-12.3-2.74a1,1,0,0,1-.14-1.4l5.18-6.34a1,1,0,0,1,1.4-.14s5.31,3.79,6.34,2A42.26,42.26,0,0,0,38,29.87c1.55-2.21-3.74-5.31-3.74-5.31A1,1,0,0,1,34,23.18l4.48-6.84a1,1,0,0,1,1.38-.29S47.19,20.66,46.17,27Z"/></g></g></svg>