<svg xmlns="http://www.w3.org/2000/svg" viewBox="0 0 64.54 64.54"><defs><style>.cls-1{fill:#cc2128;}</style></defs><title>img4-active</title><g id="Слой_2" data-name="Слой 2"><g id="Layer_1" data-name="Layer 1"><path class="cls-1" d="M32.27,64.54A32.27,32.27,0,1,1,64.54,32.27,32.31,32.31,0,0,1,32.27,64.54Zm0-62.07a29.8,29.8,0,1,0,29.8,29.8A29.84,29.84,0,0,0,32.27,2.47Z"/><path class="cls-1" d="M47.23,30.43a1.42,1.42,0,0,1-1.1-.19,1.44,1.44,0,0,1-.63-.91,13.57,13.57,0,0,0-26.81,2.5,1.45,1.45,0,0,1-1,1.31,1.53,1.53,0,0,1-.37.08h-.16a1.46,1.46,0,0,1-1.42-1.5,16.47,16.47,0,0,1,32.54-3,1.45,1.45,0,0,1-.92,1.67Z"/><path class="cls-1" d="M37.92,47.74a16.25,16.25,0,0,1-4.14.93A16.47,16.47,0,0,1,16.15,35.75a1.45,1.45,0,0,1,.92-1.66l.19-.06a1.5,1.5,0,0,1,1.09.19,1.48,1.48,0,0,1,.64.92A13.55,13.55,0,0,0,33.51,45.78,13,13,0,0,0,36.93,45a13.49,13.49,0,0,0,8.89-12.37,1.42,1.42,0,0,1,.94-1.32,1.71,1.71,0,0,1,.55-.09,1.47,1.47,0,0,1,1.41,1.49A16.38,16.38,0,0,1,37.92,47.74Z"/><path class="cls-1" d="M15.43,41.79a1.55,1.55,0,0,1-.36.08,1.39,1.39,0,0,1-.83-.17,1.43,1.43,0,0,1-.7-.86,1.41,1.41,0,0,1,.12-1.1l2.64-5a1.45,1.45,0,0,1,1.8-.67L23,36a1.45,1.45,0,0,1,.8.76,1.43,1.43,0,0,1,0,1.11,1.44,1.44,0,0,1-1.87.84l-3.74-1.48-2,3.85A1.44,1.44,0,0,1,15.43,41.79Z"/><path class="cls-1" d="M47.43,30.38a1.49,1.49,0,0,1-1,0l-4.93-1.94a1.45,1.45,0,0,1-.8-.76,1.44,1.44,0,0,1,1.84-1.94l3.74,1.47,2-3.85a1.44,1.44,0,0,1,.78-.68,1.53,1.53,0,0,1,.37-.08,1.39,1.39,0,0,1,.82.17,1.45,1.45,0,0,1,.58,2l-2.64,5A1.44,1.44,0,0,1,47.43,30.38Z"/></g></g></svg>