<svg xmlns="http://www.w3.org/2000/svg" viewBox="0 0 64.54 64.54"><defs><style>.cls-1{fill:none;stroke:#cc2128;stroke-linecap:round;stroke-linejoin:round;stroke-width:2.63px;}.cls-2{fill:#cc2128;}</style></defs><title>img5-active</title><g id="Слой_2" data-name="Слой 2"><g id="Layer_1" data-name="Layer 1"><rect class="cls-1" x="14.15" y="28.25" width="6.86" height="19.68" rx="1.97"/><path class="cls-1" d="M50.39,28.86V47.07A1.41,1.41,0,0,1,49,48.48H27.48a1.38,1.38,0,0,1-1.37-1.37V29.93c.21-2.47,6.43-4.06,10.08-8.74s3.34-8.64,4.62-8.64S43,14.76,43,19s-3.91,8.49-3.91,8.49H49A1.41,1.41,0,0,1,50.39,28.86Z"/><path class="cls-2" d="M32.27,64.54A32.27,32.27,0,1,1,64.54,32.27,32.31,32.31,0,0,1,32.27,64.54Zm0-62.07a29.8,29.8,0,1,0,29.8,29.8A29.84,29.84,0,0,0,32.27,2.47Z"/></g></g></svg>