<svg xmlns="http://www.w3.org/2000/svg" width="65" height="66" viewBox="0 0 65 66"><g><g><path fill="none" stroke="#5f6163" stroke-linecap="round" stroke-linejoin="round" stroke-miterlimit="50" stroke-width="2.63" d="M19.122 48.73v0H16.2a1.97 1.97 0 0 1-1.97-1.97V31.018a1.97 1.97 0 0 1 1.97-1.97h2.92a1.97 1.97 0 0 1 1.97 1.97V46.76a1.97 1.97 0 0 1-1.97 1.969z"/></g><g><path fill="none" stroke="#5f6163" stroke-linecap="round" stroke-linejoin="round" stroke-miterlimit="50" stroke-width="2.63" d="M50.466 29.662v18.211c0 .777-.63 1.407-1.407 1.407H27.565a1.379 1.379 0 0 1-1.375-1.374V30.724c.206-2.469 6.427-4.057 10.081-8.74 3.653-4.68 3.341-8.64 4.625-8.64 1.292 0 2.164 2.214 2.164 6.427 0 4.221-3.909 8.484-3.909 8.484v0h9.908c.777 0 1.407.631 1.407 1.407z"/></g><g><path fill="#5f6163" d="M.08 33.068C.08 15.275 14.556.798 32.349.798s32.269 14.477 32.269 32.27c0 17.792-14.476 32.267-32.269 32.267S.08 50.86.08 33.068zm2.469 0c0 16.43 13.368 29.799 29.8 29.799 16.432 0 29.8-13.368 29.8-29.8 0-16.431-13.368-29.8-29.8-29.8-16.432 0-29.8 13.369-29.8 29.8z"/></g></g></svg>