<svg xmlns="http://www.w3.org/2000/svg" width="65" height="65" viewBox="0 0 65 65"><g><g><path fill="#5f6163" d="M.442 32.591C.442 14.8 14.918.322 32.712.322 50.503.322 64.98 14.8 64.98 32.592c0 17.792-14.476 32.267-32.269 32.267S.442 50.384.442 32.591zm2.47 0c0 16.431 13.367 29.8 29.8 29.8 16.431 0 29.8-13.369 29.8-29.8 0-16.432-13.369-29.8-29.8-29.8-16.433 0-29.8 13.368-29.8 29.8z"/></g><g><path fill="none" stroke="#5f6163" stroke-linecap="round" stroke-linejoin="round" stroke-miterlimit="50" stroke-width="2.63" d="M17.272 33.381v0l13.51 10v0l17.369-21.58v0"/></g></g></svg>