<svg xmlns="http://www.w3.org/2000/svg" width="20" height="21" viewBox="0 0 20 21"><g><g><path fill="#ede712" d="M.286.756h4.382c.12 0 .234.047.318.132l3.422 3.42c.09.09.21.14.336.14h10.475c.223 0 .406.183.406.407v7.875a.408.408 0 0 1-.328.399L7.821 15.424a.619.619 0 0 1-.696-.377L2.495 3.469a.4.4 0 0 0-.373-.252H.29a.357.357 0 0 1-.357-.357V1.11c0-.196.158-.354.354-.354z"/></g><g><path fill="#ede712" d="M17.673 19.218a1.741 1.741 0 1 1-3.482 0 1.741 1.741 0 0 1 3.482 0z"/></g><g><path fill="#ede712" d="M7.827 19.218a1.74 1.74 0 1 1-3.482 0 1.74 1.74 0 0 1 3.481 0z"/></g></g></svg>