<svg xmlns="http://www.w3.org/2000/svg" width="244" height="53" viewBox="0 0 244 53"><g><g><path fill="#fff" d="M121.841 28.181h-13.47a.75.75 0 0 0-.75.75v2.992c0 .413.336.748.75.748h2.992c.414 0 .75.335.75.75v17.96c0 .413.334.748.748.748h4.49a.748.748 0 0 0 .748-.748v-17.96c0-.415.335-.75.75-.75h2.992a.748.748 0 0 0 .748-.748V28.93a.748.748 0 0 0-.748-.749z"/></g><g><path fill="#fff" d="M192.189 28.181h-13.471a.75.75 0 0 0-.75.75v2.992c0 .413.337.748.75.748h2.993c.414 0 .749.335.749.75v17.96c0 .413.335.748.749.748h4.49a.748.748 0 0 0 .748-.748v-17.96c0-.415.335-.75.749-.75h2.993a.748.748 0 0 0 .748-.748V28.93a.748.748 0 0 0-.748-.749z"/></g><g><path fill="#fff" d="M68.706 31.924V28.93a.748.748 0 0 0-.749-.748h-13.47a.748.748 0 0 0-.749.748v22.452c0 .413.335.748.748.748h13.471a.748.748 0 0 0 .75-.748v-2.994a.748.748 0 0 0-.75-.748h-7.483a.748.748 0 0 1-.748-.75v-3.74c0-.414.334-.75.748-.75h4.49a.748.748 0 0 0 .748-.747v-2.994a.748.748 0 0 0-.748-.748h-4.49a.748.748 0 0 1-.748-.75v-3.74c0-.414.334-.75.748-.75h7.483a.748.748 0 0 0 .75-.747z"/></g><g><path fill="#fff" d="M134.422 28.748l-2.853 11.407V28.93a.748.748 0 0 0-.748-.749h-4.49a.748.748 0 0 0-.748.75v22.45c0 .413.335.748.748.748h4.654a.748.748 0 0 0 .726-.567l2.853-11.407v11.226c0 .413.335.748.748.748h4.49a.748.748 0 0 0 .748-.748v-22.45a.748.748 0 0 0-.748-.75h-4.654a.748.748 0 0 0-.726.567z"/></g><g><path fill="#fff" d="M89.66 32.672V47.64a4.49 4.49 0 0 0 4.49 4.49h5.988a4.49 4.49 0 0 0 4.49-4.49v-3.742a.748.748 0 0 0-.748-.748h-4.49a.748.748 0 0 0-.75.748v2.245a1.496 1.496 0 1 1-2.993 0V34.169a1.497 1.497 0 1 1 2.993 0v2.245c0 .413.335.748.75.748h4.49a.748.748 0 0 0 .748-.748v-3.742a4.49 4.49 0 0 0-4.49-4.49H94.15a4.49 4.49 0 0 0-4.49 4.49z"/></g><g><path fill="#fff" d="M206.407 28.182a4.49 4.49 0 0 1 4.49 4.49V47.64a4.49 4.49 0 0 1-4.49 4.49h-5.986a4.49 4.49 0 0 1-4.49-4.49V32.672a4.49 4.49 0 0 1 4.49-4.49zm-1.496 5.987a1.497 1.497 0 0 0-2.994 0v11.974a1.497 1.497 0 0 0 2.994 0z"/></g><g><path fill="#fff" d="M149.532 28.181a4.49 4.49 0 0 0-4.491 4.49v14.22a.748.748 0 0 1-.748.749.748.748 0 0 0-.748.749v2.993c0 .413.335.748.748.748h2.245a4.49 4.49 0 0 0 4.49-4.49V34.169c0-.826.67-1.497 1.497-1.497h.748a.75.75 0 0 1 .749.749v17.96c0 .414.335.749.748.749h4.49a.748.748 0 0 0 .749-.748V28.93a.748.748 0 0 0-.748-.75z"/></g><g><path fill="#fff" d="M243.078 28.181H232.6a.748.748 0 0 0-.748.75v22.45c0 .414.335.749.748.749h4.491a.748.748 0 0 0 .75-.749v-17.96c0-.414.334-.75.747-.75h4.49a.748.748 0 0 0 .748-.747V28.93a.748.748 0 0 0-.748-.75z"/></g><g><path fill="#fff" d="M168.989 33.42c0 .413.335.748.749.748h3.74a4.49 4.49 0 0 1 4.49 4.491v8.98a4.49 4.49 0 0 1-4.49 4.49h-9.727a.748.748 0 0 1-.748-.747V28.93c0-.414.335-.75.748-.75h4.49c.413 0 .748.336.748.75zm1.497 14.22c.826 0 1.497-.67 1.497-1.498v-5.987c0-.827-.671-1.496-1.497-1.496h-.748a.748.748 0 0 0-.75.748v7.483c0 .414.336.75.75.75z"/></g><g><path fill="#fff" d="M219.878 51.38a.748.748 0 0 1-.748.75h-4.49a.748.748 0 0 1-.748-.75V28.93c0-.413.335-.748.748-.748h9.73a4.49 4.49 0 0 1 4.49 4.49v8.98a4.49 4.49 0 0 1-4.49 4.49h-3.743a.749.749 0 0 0-.749.749zm.75-18.708a.75.75 0 0 0-.75.749v7.483c0 .414.336.748.75.748h.747c.827 0 1.497-.67 1.497-1.496v-5.987c0-.827-.67-1.497-1.497-1.497z"/></g><g><path fill="#fff" d="M86.667 35.665V28.93a.748.748 0 0 0-.748-.749h-4.49a.749.749 0 0 0-.749.75v5.985a2.993 2.993 0 0 1-2.993 2.994v-8.98a.749.749 0 0 0-.749-.749h-4.49a.748.748 0 0 0-.749.75v22.45c0 .413.335.748.748.748h4.491a.748.748 0 0 0 .75-.748v-8.98a2.994 2.994 0 0 1 2.992 2.993v5.987c0 .413.335.748.75.748h4.49a.748.748 0 0 0 .747-.748v-6.736a4.49 4.49 0 0 0-4.49-4.49 4.49 4.49 0 0 0 4.49-4.49z"/></g><g><path fill="#fff" d="M20.34 22.787a2.144 2.144 0 0 0 2.52 2.111l9-1.601a2.647 2.647 0 0 1 3.111 2.606v18.451a5.294 5.294 0 0 0 3.18 4.854l6.19 2.698c1.75.762 3.705-.519 3.705-2.427V23.745a3.972 3.972 0 0 1 3.276-3.91l7.612-1.354a5.294 5.294 0 0 0 4.367-5.213V9.652a2.647 2.647 0 0 0-3.54-2.492l-38 13.608a2.145 2.145 0 0 0-1.422 2.019z"/></g><g><path fill="#ede712" d="M.341 52.595l-.12-2.697c-.01-.429-.064-.903-.044-1.422l.063-1.69.077-1.939.254-2.127.14-1.14.073-.589.12-.589.505-2.467c.143-.86.451-1.695.69-2.579.268-.87.477-1.794.847-2.672l1.041-2.725c.397-.904.844-1.8 1.276-2.718.41-.933.936-1.809 1.454-2.702.525-.886 1.006-1.816 1.623-2.654.593-.86 1.187-1.72 1.777-2.578l1.962-2.428c.631-.829 1.368-1.548 2.064-2.297.712-.73 1.371-1.51 2.13-2.156l2.18-1.979c.713-.653 1.488-1.192 2.205-1.772l1.08-.84c.351-.28.704-.549 1.07-.78l2.098-1.4c1.33-.94 2.66-1.604 3.803-2.274.58-.32 1.113-.642 1.625-.9l1.422-.677L34.471.52c2.69-1.272 5.932-.184 7.24 2.43 1.31 2.614.19 5.765-2.5 7.037a5.53 5.53 0 0 1-.807.307l-.328.093-2.432.698-1.29.367c-.467.143-.95.342-1.48.53-1.047.404-2.286.77-3.526 1.381l-1.98.89c-.35.144-.686.323-1.022.511l-1.036.562c-.692.393-1.449.743-2.149 1.201l-2.165 1.39c-.76.45-1.427 1.028-2.159 1.56-.714.55-1.479 1.071-2.144 1.702l-2.096 1.848-1.963 2.02c-.688.657-1.246 1.41-1.857 2.13-.603.723-1.223 1.438-1.732 2.215-.53.765-1.084 1.516-1.592 2.281l-1.383 2.34c-.489.76-.82 1.571-1.213 2.342-.363.782-.794 1.527-1.063 2.304-.3.77-.594 1.52-.878 2.245-.07.182-.14.362-.212.542l-.166.543-.317 1.061-.6 2.001-.39 1.832c-.125.58-.24 1.123-.347 1.626-.108.504-.138.983-.2 1.407l-.343 2.68z"/></g></g></svg>