<svg xmlns="http://www.w3.org/2000/svg" width="26" height="25" viewBox="0 0 26 25"><g><g><path fill="#1d1b19" d="M17.576 4.84h-3.31a.77.77 0 0 1-.77-.772V.76c0-.425.345-.77.77-.77h3.31c.426 0 .77.345.77.77v3.31a.77.77 0 0 1-.77.77z"/></g><g><path fill="#1d1b19" d="M24.367 4.84h-3.31a.77.77 0 0 1-.77-.772V.76c0-.425.345-.77.77-.77h3.31c.426 0 .77.345.77.77v3.31a.77.77 0 0 1-.77.77z"/></g><g><path fill="#1d1b19" d="M17.576 11.63h-3.31a.77.77 0 0 1-.77-.77V7.55a.77.77 0 0 1 .77-.77h3.31a.77.77 0 0 1 .77.77v3.31a.77.77 0 0 1-.77.77z"/></g><g><path fill="#1d1b19" d="M24.367 11.63h-3.31a.77.77 0 0 1-.77-.77V7.55a.77.77 0 0 1 .77-.77h3.31a.77.77 0 0 1 .77.77v3.31a.77.77 0 0 1-.77.77z"/></g><g><path fill="#1d1b19" d="M4.188 4.84H.878a.77.77 0 0 1-.77-.772V.76c0-.425.345-.77.77-.77h3.31c.426 0 .77.345.77.77v3.31a.77.77 0 0 1-.77.77z"/></g><g><path fill="#1d1b19" d="M10.979 4.84h-3.31a.77.77 0 0 1-.77-.772V.76c0-.425.345-.77.77-.77h3.31c.426 0 .77.345.77.77v3.31a.77.77 0 0 1-.77.77z"/></g><g><path fill="#1d1b19" d="M4.188 11.63H.878a.77.77 0 0 1-.77-.77V7.55a.77.77 0 0 1 .77-.77h3.31a.77.77 0 0 1 .77.77v3.31a.77.77 0 0 1-.77.77z"/></g><g><path fill="#1d1b19" d="M10.979 11.63h-3.31a.77.77 0 0 1-.77-.77V7.55a.77.77 0 0 1 .77-.77h3.31a.77.77 0 0 1 .77.77v3.31a.77.77 0 0 1-.77.77z"/></g><g><path fill="#1d1b19" d="M17.576 18.227h-3.31a.77.77 0 0 1-.77-.771v-3.31c0-.424.345-.77.77-.77h3.31c.426 0 .77.346.77.77v3.31a.77.77 0 0 1-.77.77z"/></g><g><path fill="#1d1b19" d="M24.367 18.227h-3.31a.77.77 0 0 1-.77-.771v-3.31c0-.424.345-.77.77-.77h3.31c.426 0 .77.346.77.77v3.31a.77.77 0 0 1-.77.77z"/></g><g><path fill="#1d1b19" d="M17.576 25.018h-3.31a.77.77 0 0 1-.77-.771v-3.31c0-.424.345-.77.77-.77h3.31c.426 0 .77.346.77.77v3.31a.77.77 0 0 1-.77.77z"/></g><g><path fill="#1d1b19" d="M24.367 25.018h-3.31a.77.77 0 0 1-.77-.771v-3.31c0-.424.345-.77.77-.77h3.31c.426 0 .77.346.77.77v3.31a.77.77 0 0 1-.77.77z"/></g><g><path fill="#1d1b19" d="M4.188 18.227H.878a.77.77 0 0 1-.77-.771v-3.31c0-.424.345-.77.77-.77h3.31c.426 0 .77.346.77.77v3.31a.77.77 0 0 1-.77.77z"/></g><g><path fill="#1d1b19" d="M10.979 18.227h-3.31a.77.77 0 0 1-.77-.771v-3.31c0-.424.345-.77.77-.77h3.31c.426 0 .77.346.77.77v3.31a.77.77 0 0 1-.77.77z"/></g><g><path fill="#1d1b19" d="M4.188 25.018H.878a.77.77 0 0 1-.77-.771v-3.31c0-.424.345-.77.77-.77h3.31c.426 0 .77.346.77.77v3.31a.77.77 0 0 1-.77.77z"/></g><g><path fill="#1d1b19" d="M10.979 25.018h-3.31a.77.77 0 0 1-.77-.771v-3.31c0-.424.345-.77.77-.77h3.31c.426 0 .77.346.77.77v3.31a.77.77 0 0 1-.77.77z"/></g></g></svg>