<svg xmlns="http://www.w3.org/2000/svg" width="41" height="40" viewBox="0 0 41 40"><g><g><path fill="#fff" d="M40.22 20.033v4.419c0 3.014-2.425 5.458-5.438 5.458h-.978a1.43 1.43 0 0 1-1.425-1.426V16a1.43 1.43 0 0 1 1.425-1.426h.978c.142 0 .264 0 .386.02C33.824 7.694 27.756 2.46 20.466 2.46S7.108 7.693 5.763 14.596c.122-.021.265-.021.407-.021h.978c.774 0 1.425.652 1.425 1.426v12.483c0 .509-.285.957-.692 1.222v1.853h-.855c.407 1.14 2.281 4.154 10.752 5.173a2.338 2.338 0 0 1 2.24-1.711 2.342 2.342 0 0 1 2.342 2.342 2.33 2.33 0 0 1-2.342 2.342 2.35 2.35 0 0 1-2.179-1.487c-10.324-1.222-12.035-5.335-12.3-6.66h-.632v-1.791a5.462 5.462 0 0 1-4.194-5.315v-4.42a5.473 5.473 0 0 1 2.892-4.825C4.705 6.857 11.852.423 20.466.423c8.613 0 15.762 6.435 16.861 14.784a5.475 5.475 0 0 1 2.892 4.826z"/></g></g></svg>