<svg xmlns="http://www.w3.org/2000/svg" width="31" height="30"><path fill="#8b8e91" d="M18.276 15.023v.37c-.09 1.64-1.32 3.02-3.21 3.02-1.69 0-2.98-1.22-2.98-3.14 0-1.71 1.07-3.23 2.99-3.23h.06c1.67 0 3.04 1.12 3.14 2.98z"/><path fill="#8b8e91" d="M23.686.243c3.59 0 6.53 2.95 6.53 6.54v16.61c0 3.61-2.94 6.56-6.53 6.56H7.066c-3.6 0-6.53-2.95-6.53-6.56V6.783c0-3.59 2.93-6.54 6.53-6.54zm-2.09 20.23c2.8-2.18 2.97-7.81.09-10.82-2.75-2.87-7.31-3.44-10.78-1.38-4.52 2.69-4.61 7.89-2.91 10.84 2.53 4.38 7.94 4.46 9.88 3.63 1.28-.54.71-2.22-.53-1.72-2.44.99-6.55 0-7.99-3.32-1.32-3.04.04-6.28 2.16-7.74 2-1.37 5.75-1.78 8.54.67 3 2.63 1.73 7.16.67 8.25-.28.28-.77.05-.72-.38l-.01-6.63c0-.19-.13-.78-.75-.78h-.1c-.4 0-.69.33-.69.75-.88-.89-2.09-1.46-3.37-1.46-2.54 0-4.77 2.26-4.77 4.82 0 2.54 2.23 4.77 4.77 4.77a4.74 4.74 0 003.35-1.39l.01.47c-.01 1.45 1.87 2.42 3.15 1.42z"/></svg>