<svg xmlns="http://www.w3.org/2000/svg" width="260" height="57"><path fill="#d32011" d="M129.882 30.823h-14.375a.798.798 0 00-.798.8v3.193c0 .441.358.798.798.798h3.195a.8.8 0 01.799.8v19.165a.8.8 0 00.798.8h4.79a.8.8 0 00.8-.8V36.413c0-.441.358-.798.799-.798h3.194a.798.798 0 00.799-.799v-3.194a.799.799 0 00-.8-.799zm75.067 0h-14.375a.798.798 0 00-.798.8v3.193c0 .441.358.798.798.798h3.195a.8.8 0 01.799.8v19.165a.8.8 0 00.798.8h4.79a.799.799 0 00.8-.8V36.413c0-.441.358-.798.799-.798h3.194a.798.798 0 00.799-.799v-3.194a.799.799 0 00-.8-.799zM73.182 34.817v-3.194a.798.798 0 00-.798-.8H58.009a.799.799 0 00-.799.8V55.58a.8.8 0 00.799.799h14.375a.798.798 0 00.798-.8v-3.194a.798.798 0 00-.798-.798h-7.986a.798.798 0 01-.799-.798v-3.993c0-.442.357-.8.799-.8h4.791a.8.8 0 00.799-.798v-3.194a.798.798 0 00-.799-.798h-4.791a.8.8 0 01-.799-.8v-3.992c0-.442.357-.8.799-.8h7.986a.798.798 0 00.798-.797zm70.124-3.389l-3.043 12.173V31.622a.798.798 0 00-.799-.798h-4.79a.798.798 0 00-.8.798v23.957c0 .442.358.799.8.799h4.965a.8.8 0 00.775-.605l3.044-12.172v11.978c0 .442.358.799.799.799h4.79a.799.799 0 00.8-.799V31.622a.798.798 0 00-.8-.798h-4.965a.798.798 0 00-.775.604zm-47.764 4.186v15.973a4.793 4.793 0 004.792 4.791h6.388a4.792 4.792 0 004.792-4.791v-3.994a.798.798 0 00-.799-.798h-4.79a.798.798 0 00-.8.798v2.396a1.597 1.597 0 11-3.194 0V37.213a1.598 1.598 0 113.194 0v2.394a.8.8 0 00.8.8h4.79a.799.799 0 00.8-.8v-3.992a4.791 4.791 0 00-4.793-4.792h-6.388a4.792 4.792 0 00-4.792 4.791zm124.581-4.791a4.792 4.792 0 014.79 4.791v15.973a4.792 4.792 0 01-4.79 4.791h-6.39a4.793 4.793 0 01-4.791-4.791V35.614a4.792 4.792 0 014.792-4.79zm-1.598 6.39a1.598 1.598 0 10-3.194 0v12.776a1.597 1.597 0 103.194 0zm-59.095-6.39a4.792 4.792 0 00-4.792 4.791V50.79c0 .44-.357.797-.798.797a.799.799 0 00-.8.8v3.193a.8.8 0 00.8.8h2.396a4.792 4.792 0 004.79-4.792V37.212c0-.882.716-1.598 1.598-1.598h.799a.8.8 0 01.799.8v19.165a.8.8 0 00.798.8h4.79a.799.799 0 00.8-.8V31.622a.798.798 0 00-.8-.799zm99.822 0h-11.18a.799.799 0 00-.799.8v23.956a.8.8 0 00.8.8h4.79a.799.799 0 00.8-.8V36.413c0-.441.357-.798.798-.798h4.791a.798.798 0 00.8-.799v-3.194a.799.799 0 00-.8-.799zm-79.059 5.59c0 .442.357.8.798.8h3.993a4.792 4.792 0 014.792 4.79v9.583a4.793 4.793 0 01-4.792 4.792h-10.381a.799.799 0 01-.8-.799V31.622a.8.8 0 01.8-.799h4.79a.8.8 0 01.8.8zm1.597 15.173c.882 0 1.597-.715 1.597-1.597v-6.388c0-.882-.715-1.598-1.597-1.598h-.8a.798.798 0 00-.797.8v7.985c0 .441.357.798.798.798zm52.706 3.994a.798.798 0 01-.798.799h-4.79a.799.799 0 01-.8-.8V31.624a.8.8 0 01.8-.8h10.38a4.791 4.791 0 014.791 4.792v9.583a4.792 4.792 0 01-4.79 4.792h-3.994a.799.799 0 00-.799.799zm.8-19.965a.799.799 0 00-.8.798V44.4c0 .44.358.797.8.797h.798c.882 0 1.597-.715 1.597-1.597v-6.388c0-.882-.715-1.598-1.597-1.598zM92.348 38.809v-7.187a.798.798 0 00-.798-.798h-4.792a.798.798 0 00-.799.798v6.389a3.194 3.194 0 01-3.194 3.194v-9.583a.798.798 0 00-.798-.798h-4.792a.798.798 0 00-.799.798V55.58a.8.8 0 00.8.798h4.791a.798.798 0 00.798-.798v-9.584a3.195 3.195 0 013.194 3.195v6.389a.8.8 0 00.8.798h4.791a.798.798 0 00.798-.798v-7.188a4.791 4.791 0 00-4.792-4.791 4.792 4.792 0 004.792-4.792z"/><path fill="#d32011" d="M21.57 25.067a2.288 2.288 0 002.688 2.253l9.606-1.71a2.825 2.825 0 013.32 2.782V48.08a5.648 5.648 0 003.392 5.179l6.606 2.88c1.867.814 3.954-.554 3.954-2.59v-27.46a4.237 4.237 0 013.496-4.171l8.122-1.446a5.648 5.648 0 004.66-5.562v-3.86a2.825 2.825 0 00-3.777-2.66l-40.55 14.524a2.286 2.286 0 00-1.517 2.153z"/><path fill="#fff" d="M.23 56.874l-.128-2.878c-.011-.458-.067-.963-.046-1.518l.067-1.802.082-2.07a3560.917 3560.917 0 01.42-3.487l.079-.628.128-.628.539-2.632c.152-.918.48-1.809.734-2.752.288-.93.51-1.914.906-2.85l1.11-2.909c.424-.964.902-1.92 1.362-2.9.437-.996 1-1.93 1.55-2.883.562-.947 1.075-1.939 1.733-2.833l1.897-2.75c.702-.869 1.4-1.734 2.094-2.59.673-.887 1.459-1.654 2.2-2.453.76-.779 1.464-1.612 2.273-2.3l2.328-2.113c.76-.696 1.587-1.272 2.353-1.89l1.15-.896c.377-.299.753-.586 1.144-.834l2.239-1.494c1.419-1.004 2.838-1.71 4.058-2.426.618-.34 1.188-.685 1.734-.96l1.517-.722 2.897-1.37c2.87-1.358 6.33-.197 7.727 2.592 1.396 2.79.202 6.152-2.67 7.51a5.88 5.88 0 01-.86.327l-.35.1-2.595.745c-.416.118-.876.25-1.378.391-.496.154-1.013.365-1.58.565-1.114.432-2.437.822-3.76 1.474l-2.114.95a9.99 9.99 0 00-1.09.546l-1.105.6c-.738.418-1.547.791-2.293 1.281l-2.31 1.483c-.813.48-1.524 1.097-2.305 1.663-.761.587-1.578 1.144-2.288 1.82l-2.236 1.97-2.094 2.155c-.734.702-1.33 1.505-1.982 2.271-.643.773-1.305 1.536-1.848 2.366-.567.816-1.157 1.616-1.7 2.434-.498.844-.99 1.678-1.475 2.497-.522.81-.875 1.677-1.295 2.5-.386.834-.847 1.628-1.133 2.457l-.937 2.395-.226.58c-.06.194-.12.387-.177.58l-.34 1.131-.64 2.135-.417 1.954-.37 1.736c-.115.54-.146 1.048-.214 1.502L.23 56.874z"/></svg>