<svg xmlns="http://www.w3.org/2000/svg" width="31" height="31"><path fill="#2e2c2c" d="M24 .736c3.589 0 6.539 2.95 6.539 6.54v16.61c0 3.61-2.95 6.55-6.54 6.55H7.39c-3.61 0-6.54-2.94-6.54-6.55V7.276c0-3.59 2.93-6.54 6.54-6.54zm-8.311 6.82a4.151 4.151 0 00-4.14 4.15 4.148 4.148 0 004.14 4.14 4.15 4.15 0 004.15-4.14c0-2.29-1.86-4.15-4.15-4.15zm4.09 10.68c.56-.36.74-1.11.38-1.68-.36-.57-1.11-.74-1.68-.38a5.247 5.247 0 01-5.58 0c-.56-.36-1.31-.19-1.67.38-.36.57-.19 1.32.38 1.68.75.47 1.56.8 2.41.99l-2.32 2.32c-.47.47-.47 1.24 0 1.72.24.23.55.35.86.35.31 0 .62-.12.86-.35l2.27-2.28 2.28 2.28c.47.47 1.24.47 1.72 0 .47-.48.47-1.25 0-1.72l-2.32-2.32a7.714 7.714 0 002.41-.99zm-4.09-8.25c.95 0 1.72.77 1.72 1.72a1.716 1.716 0 11-1.72-1.72z"/></svg>