<svg xmlns="http://www.w3.org/2000/svg" width="30" height="31"><path fill="#2e2c2c" d="M23.058.735c3.59 0 6.54 2.951 6.54 6.54v16.611c0 3.61-2.95 6.55-6.54 6.55H6.448c-3.609 0-6.54-2.94-6.54-6.55V7.276c0-3.59 2.931-6.54 6.54-6.54zm-2.44 11.851a6.266 6.266 0 001.512-1.57c-.551.24-1.13.4-1.74.48a3.103 3.103 0 001.33-1.68 6.024 6.024 0 01-1.92.74c-.55-.59-1.34-.96-2.21-.96a3.027 3.027 0 00-3.021 3.03c0 .23.02.47.08.69a8.596 8.596 0 01-6.24-3.16 3.013 3.013 0 00.94 4.031 3 3 0 01-1.37-.372v.031c0 1.47 1.04 2.69 2.42 2.97a2.91 2.91 0 01-.79.11c-.2 0-.39-.02-.57-.06.38 1.2 1.5 2.08 2.82 2.1a6.072 6.072 0 01-3.75 1.3c-.25 0-.49-.02-.72-.05a8.495 8.495 0 004.63 1.36c5.56 0 8.61-4.61 8.61-8.6 0-.13-.01-.26-.01-.39z"/></svg>