<svg xmlns="http://www.w3.org/2000/svg" width="30" height="31"><path fill="#2e2c2c" d="M23.139.735c3.59 0 6.54 2.951 6.54 6.54v16.611c0 3.61-2.95 6.55-6.54 6.55H6.509c-3.59 0-6.53-2.94-6.53-6.55V7.276c0-3.59 2.94-6.54 6.53-6.54zm-.82 16.931c-1.6-1.48-1.39-1.24.54-3.81 1.17-1.57 1.64-2.52 1.5-2.93-.14-.39-1.01-.29-1.01-.29l-2.87.02s-.22-.03-.37.06a.838.838 0 00-.26.31s-.45 1.21-1.06 2.24c-1.28 2.18-1.79 2.29-2 2.16-.49-.32-.37-1.27-.37-1.94 0-2.11.32-2.99-.62-3.21-.31-.08-.54-.13-1.34-.14-1.03-.01-1.89.01-2.38.25-.33.16-.58.51-.43.53.19.03.62.12.85.43.29.4.28 1.3.28 1.3s.17 2.48-.39 2.79c-.39.21-.92-.22-2.06-2.19-.59-1.01-1.03-2.13-1.03-2.13s-.08-.21-.24-.32c-.18-.14-.44-.18-.44-.18l-2.73.02s-.41.01-.56.19c-.13.16-.01.49-.01.49s2.14 5 4.56 7.52c2.22 2.31 4.74 2.16 4.74 2.16h1.14s.35-.04.53-.23c.16-.17.15-.5.15-.5s-.02-1.53.69-1.76c.7-.22 1.6 1.48 2.56 2.14.72.5 1.27.39 1.27.39l2.55-.04s1.34-.08.7-1.13c-.05-.09-.36-.78-1.89-2.2z"/></svg>