<svg xmlns="http://www.w3.org/2000/svg" width="63" height="93"><path fill="none" stroke="#1d2329" stroke-linecap="round" stroke-linejoin="round" stroke-miterlimit="50" stroke-width="1.37" d="M55.543 72.01v0H3.338v0-10.291 0h52.205v0zM49.235 6.436v0H31.148v0H12.446v0-2.103 0h36.789v2.103z"/><path fill="none" stroke="#1d2329" stroke-linecap="round" stroke-linejoin="round" stroke-miterlimit="50" stroke-width="1.37" d="M30.84 32.112v0V3.447c0-.854-.217-2.748-2.166-2.748m2.166 67.368V61.72M23.497 5.461v0h-4.976a2.078 2.078 0 01-2.078-2.078V.698v0h9.132v2.685a2.078 2.078 0 01-2.078 2.078zm20.76 0v0h-4.976a2.078 2.078 0 01-2.078-2.078V.698v0h9.132v2.685a2.078 2.078 0 01-2.078 2.078zm7.564 31.271v0H10.433v0-3.219 0h41.388v0zm-31.863-4.369v0h-8.31v1.15h8.31v0zm-.706-9.18v9.18h-6.896v0-9.18 0l1.61-1.984v0h3.678v0l1.608 1.983v0z"/><path fill="none" stroke="#1d2329" stroke-linecap="round" stroke-linejoin="round" stroke-miterlimit="50" stroke-width="1.53" d="M17.644 21.199v0h-3.679v0-.788 0h3.679v0z"/><path fill="none" stroke="#1d2329" stroke-linecap="round" stroke-linejoin="round" stroke-miterlimit="50" stroke-width="1.37" d="M30.224 32.363v0h-8.311v1.15h8.311v0zm-.707-9.18v9.18h-6.895v0-9.18 0l1.608-1.984v0h3.68v0l1.607 1.983v0z"/><path fill="none" stroke="#1d2329" stroke-linecap="round" stroke-linejoin="round" stroke-miterlimit="50" stroke-width="1.53" d="M27.91 21.199v0h-3.68v0-.788 0h3.68v0z"/><path fill="none" stroke="#1d2329" stroke-linecap="round" stroke-linejoin="round" stroke-miterlimit="50" stroke-width="1.37" d="M40.877 32.363v0h-8.31v1.15h8.31v0zm-.706-9.18v9.18h-6.896v0-9.18 0l1.61-1.984v0h3.678v0l1.608 1.983v0z"/><path fill="none" stroke="#1d2329" stroke-linecap="round" stroke-linejoin="round" stroke-miterlimit="50" stroke-width="1.53" d="M38.563 21.199v0h-3.679v0-.788 0h3.679v0z"/><path fill="none" stroke="#1d2329" stroke-linecap="round" stroke-linejoin="round" stroke-miterlimit="50" stroke-width="1.37" d="M51.143 32.363v0h-8.311v1.15h8.311v0zm-.707-9.18v9.18H43.54v0-9.18 0l1.608-1.984v0h3.679v0l1.608 1.983v0z"/><path fill="none" stroke="#1d2329" stroke-linecap="round" stroke-linejoin="round" stroke-miterlimit="50" stroke-width="1.53" d="M48.828 21.199v0h-3.679v0-.788 0h3.679v0z"/><path fill="none" stroke="#1d2329" stroke-linecap="round" stroke-linejoin="round" stroke-miterlimit="50" stroke-width="1.37" d="M15.804 61.433v0l2.82-17.672v0l5.035-1.313v0s0-3.898 1.271-4.6c0 0-.482-4.335.832-4.335H36.45v0l.481 3.219v0s2.847-.285 2.847 4.84h2.321v0l6.263 20.146v0l-32.557-.285v0zm14.185-35.125v0h3.021v2.387h-3.021v0z"/><path fill="#fff" d="M36.143 61.72h-8.934s-1.188-16.43-.883-22.473c.315-6.044.883-10.206.883-10.206l2.775-.347h3.374l2.785.358s.568 4.15.873 10.195c.305 6.044-.873 22.473-.873 22.473z"/><path fill="none" stroke="#1d2329" stroke-linecap="round" stroke-linejoin="round" stroke-miterlimit="50" stroke-width="1.37" d="M36.143 61.72v0h-8.934v0s-1.188-16.43-.883-22.473c.315-6.044.883-10.206.883-10.206v0l2.775-.347v0h3.374v0l2.785.358v0s.568 4.15.873 10.195c.305 6.044-.873 22.473-.873 22.473v0z"/><path fill="#fff" d="M58.871 57.25H41.879V29.439h16.992z"/><path fill="none" stroke="#1d2329" stroke-linecap="round" stroke-linejoin="round" stroke-miterlimit="50" stroke-width="1.37" d="M58.871 57.25v0H41.879v0-27.811 0h16.992v0z"/><path fill="#fff" d="M44.506 32.112h11.738v18.876H44.506z"/><path fill="none" stroke="#1d2329" stroke-linecap="round" stroke-linejoin="round" stroke-miterlimit="50" stroke-width="1.37" d="M44.506 32.112v0h11.738v18.876H44.506v0z"/><path fill="#fff" d="M61.413 84.234s-.526 5.056-.926 6.696c-.389 1.64-9.387 1.377-9.912 0-.526-1.377-1.052-4.142-1.84-4.142H14.7c-.788 0-1.313 2.765-1.839 4.142-.526 1.377-9.523 1.64-9.912 0-.399-1.64-.926-6.696-.926-6.696l.726-6.58s.525-2.554 1.966-6.832c.336-.988 4.288-1.713 9.923-2.166 9.595-.777 24.038-.788 33.76-.02 5.845.452 9.976 1.177 10.323 2.197 1.44 4.267 1.966 6.832 1.966 6.832z"/><path fill="none" stroke="#1d2329" stroke-linecap="round" stroke-linejoin="round" stroke-miterlimit="50" stroke-width="1.37" d="M61.413 84.234v0s-.526 5.056-.926 6.696c-.389 1.64-9.387 1.377-9.912 0-.526-1.377-1.052-4.142-1.84-4.142H14.7c-.788 0-1.313 2.765-1.839 4.142-.526 1.377-9.523 1.64-9.912 0-.399-1.64-.926-6.696-.926-6.696v0l.726-6.58v0s.525-2.554 1.966-6.832c.336-.988 4.288-1.713 9.923-2.166 9.595-.777 24.038-.788 33.76-.02 5.845.452 9.976 1.177 10.323 2.197 1.44 4.267 1.966 6.832 1.966 6.832v0l.726 6.57v0z"/><path fill="#fff" d="M48.347 86.788H14.701s-1.44-12.098-.063-18.132c9.596-.777 24.038-.788 33.761-.02 1.398 6.022-.052 18.152-.052 18.152z"/><path fill="none" stroke="#1d2329" stroke-linecap="round" stroke-linejoin="round" stroke-miterlimit="50" stroke-width="1.37" d="M48.347 86.788v0H14.701v0s-1.44-12.098-.063-18.132c9.596-.777 24.038-.788 33.761-.02 1.398 6.022-.052 18.152-.052 18.152v0z"/><path fill="none" stroke="#1d2329" stroke-linecap="round" stroke-linejoin="round" stroke-miterlimit="50" stroke-width="1.37" d="M52.149 71.222c0 1.705-9.191 3.088-20.53 3.088-11.337 0-20.53-1.384-20.53-3.089 0-1.704 9.193-3.086 20.53-3.086 11.339 0 20.53 1.381 20.53 3.086z"/><path fill="none" stroke="#1d2329" stroke-linecap="round" stroke-linejoin="round" stroke-miterlimit="50" stroke-width="1.37" d="M33.84 78.25v0h-4.507a1.032 1.032 0 01-1.03-1.03v-6.708c0-.57.461-1.031 1.03-1.031h4.507a1.03 1.03 0 011.031 1.03v6.709a1.03 1.03 0 01-1.03 1.03zM9.838 69.974v0H1.174a.595.595 0 01-.595-.596v-.716c0-.329.266-.596.595-.596h8.664c.328 0 .595.268.595.596v.716a.596.596 0 01-.595.596zm51.428 0v0h-8.664a.595.595 0 01-.595-.596v-.716c0-.329.266-.596.595-.596h8.664c.328 0 .595.268.595.596v.716a.596.596 0 01-.595.596zM.94 64.893h2.398m-1.314 1.27v-1.27"/><path fill="none" stroke="#1d2329" stroke-miterlimit="50" stroke-width="1.05" d="M50.439 23.186v9.176h-6.896v0-9.176 0l1.609-1.987v0h3.679v0l1.608 1.987v0zM17.644 21.2v0l1.608 1.986v9.176h-6.895v0-9.176 0l1.608-1.987v0h3.679v0zm8.682 18.047c-.305 6.043.884 22.473.884 22.473v0h8.933v0s1.178-16.43.873-22.473a151.765 151.765 0 00-.503-6.885h3.659v0-9.18 0l-1.61-1.983v0h-3.677v0l-1.61 1.984v5.51h-3.291v0l-.467.059v0-5.57 0L27.91 21.2v0h-3.68v0l-1.607 1.984v9.179h4.216a154.558 154.558 0 00-.513 6.885zm-11.688 29.41c-1.377 6.034.062 18.132.062 18.132v0h33.647v0s1.45-12.13.052-18.153c-9.723-.767-24.165-.756-33.76.02z"/></svg>