<svg xmlns="http://www.w3.org/2000/svg" width="94" height="58"><path fill="none" stroke="#1d2329" stroke-linecap="round" stroke-linejoin="round" stroke-miterlimit="50" stroke-width=".97" d="M13.676 16.258v0l1.428 10.653c.083.62.612 1.083 1.238 1.083h16.04c.621 0 1.147-.455 1.236-1.069l.654-4.498a3.245 3.245 0 013.212-2.778h17.291a3.245 3.245 0 013.246 3.245v14.931c0 1.278-1.617 2.82-2.782 2.82h27.18v0-24.348c0-.735-.595-1.33-1.329-1.333l-66.088-.216a1.333 1.333 0 00-1.326 1.51z"/><path fill="none" stroke="#1d2329" stroke-linecap="round" stroke-linejoin="round" stroke-miterlimit="50" stroke-width=".97" d="M91.845 41.076v0l.992 2.07a.76.76 0 01-.685 1.089H2.063a.76.76 0 01-.675-1.11l1.074-2.07a.759.759 0 01.674-.411H91.16a.76.76 0 01.685.432z"/><path fill="none" stroke="#1d2329" stroke-miterlimit="50" stroke-width=".74" d="M13.624 11.874v0l1.25-8.431A2.511 2.511 0 0117.359 1.3h61.17c1.247 0 2.304.916 2.484 2.15l1.258 8.653a.888.888 0 01-.882 1.017L14.5 12.893a.888.888 0 01-.876-1.02z"/><path fill="none" stroke="#1d2329" stroke-linecap="round" stroke-linejoin="round" stroke-miterlimit="50" stroke-width=".97" d="M13.624 11.874v0l1.25-8.431A2.511 2.511 0 0117.359 1.3h61.17c1.247 0 2.304.916 2.484 2.15l1.258 8.653a.888.888 0 01-.882 1.017L14.5 12.893a.888.888 0 01-.876-1.02z"/><path fill="none" stroke="#1d2329" stroke-miterlimit="50" stroke-width=".74" d="M92.452 47.018v0l-2.429 8.668a2.224 2.224 0 01-2.14 1.623H6.385a2.224 2.224 0 01-2.098-1.489l-3.06-8.748a.888.888 0 01.84-1.182h89.53a.888.888 0 01.855 1.128z"/><path fill="none" stroke="#1d2329" stroke-linecap="round" stroke-linejoin="round" stroke-miterlimit="50" stroke-width=".97" d="M81.663 8.757v0h2.935c.735 0 1.332.597 1.332 1.333v6.464c0 .737-.597 1.333-1.333 1.333H82.42v0M71.858 36.014v0H67.69a1.416 1.416 0 01-1.416-1.416v-1.084c0-.782.634-1.416 1.416-1.416h4.167c.782 0 1.416.634 1.416 1.416v1.084c0 .782-.634 1.416-1.416 1.416z"/><path fill="none" stroke="#1d2329" stroke-linecap="round" stroke-linejoin="round" stroke-miterlimit="50" stroke-width=".97" d="M72.939 34.348v0h-6.367a.335.335 0 01-.334-.335v-.256c0-.185.15-.335.334-.335h6.367c.185 0 .335.15.335.335v.256c0 .185-.15.335-.335.335z"/><path fill="#fff" d="M44.301 7.043a3.46 3.46 0 11-6.92 0 3.46 3.46 0 016.92 0z"/><path fill="none" stroke="#1d2329" stroke-linecap="round" stroke-linejoin="round" stroke-miterlimit="50" stroke-width=".69" d="M44.301 7.043a3.46 3.46 0 11-6.92 0 3.46 3.46 0 016.92 0z"/><path fill="#fff" d="M57.527 7.043a3.46 3.46 0 11-6.92 0 3.46 3.46 0 016.92 0z"/><path fill="none" stroke="#1d2329" stroke-linecap="round" stroke-linejoin="round" stroke-miterlimit="50" stroke-width=".69" d="M57.527 7.043a3.46 3.46 0 11-6.92 0 3.46 3.46 0 016.92 0z"/><path fill="#fff" d="M24.855 28.073v10.5"/><path fill="none" stroke="#3b3a3c" stroke-linecap="round" stroke-linejoin="round" stroke-miterlimit="50" stroke-width=".97" d="M24.855 28.073v10.5"/><path fill="#fff" d="M27.577 29.302h-4.75v-1.308h4.75z"/><path fill="none" stroke="#3b3a3c" stroke-linecap="round" stroke-linejoin="round" stroke-miterlimit="50" stroke-width=".97" d="M27.577 29.302v0h-4.75v0-1.308 0h4.75v0z"/><path fill="#fff" d="M23.994 33.681h-2.352v-1.546h2.352z"/><path fill="none" stroke="#3b3a3c" stroke-linecap="round" stroke-linejoin="round" stroke-miterlimit="50" stroke-width=".97" d="M23.994 33.681v0h-2.352v0-1.546 0h2.352v0z"/><path fill="#fff" d="M23.267 32.135h-.88v-4.141h.88z"/><path fill="none" stroke="#3b3a3c" stroke-linecap="round" stroke-linejoin="round" stroke-miterlimit="50" stroke-width=".97" d="M23.267 32.135v0h-.88v0-4.141 0h.88v0z"/><path fill="none" stroke="#1d2329" stroke-linecap="round" stroke-linejoin="round" stroke-miterlimit="50" stroke-width=".97" d="M92.452 47.018v0l-2.429 8.668a2.224 2.224 0 01-2.14 1.623H6.385a2.224 2.224 0 01-2.098-1.489l-3.06-8.748a.888.888 0 01.84-1.182h89.53a.888.888 0 01.855 1.128z"/><path fill="#fff" d="M29.271 27.994h-2.346V1.301h2.346z"/><path fill="none" stroke="#1d2329" stroke-linecap="round" stroke-linejoin="round" stroke-miterlimit="50" stroke-width=".97" d="M29.271 27.994v0h-2.346v0V1.301v0h2.346v0zm5.001-5.566v0s.405-7.593 4.59-7.59h18.926a4.442 4.442 0 014.442 4.444v14.965c0 1.658-1.735 3.456-2.38 3.954-.643.498-2.047 1.778-4.611 2.444"/></svg>