<svg xmlns="http://www.w3.org/2000/svg" width="65" height="65"><path fill="#e92126" d="M31.369 50.346l-22.63-24.07a1.234 1.234 0 01.008-1.7l9.357-9.767c.233-.243.554-.381.89-.381h26.548c.337 0 .658.138.89.38l9.358 9.769c.454.474.458 1.22.008 1.699l-22.63 24.07a1.236 1.236 0 01-1.8 0zm-20.03-24.907l20.93 22.26 20.928-22.26-8.182-8.542H19.522z"/><path fill="#e92126" d="M54.898 26.664H9.638a1.235 1.235 0 110-2.469h45.26a1.234 1.234 0 010 2.47z"/><path fill="#e92126" d="M32.27 50.735c-.453 0-.888-.248-1.105-.68L19.06 25.985a1.237 1.237 0 01.074-1.237l6.485-9.77a1.235 1.235 0 012.057 1.367l-6.089 9.17 11.784 23.43a1.233 1.233 0 01-1.102 1.79z"/><path fill="#e92126" d="M32.267 50.735a1.233 1.233 0 01-1.102-1.789l11.784-23.43-6.089-9.171a1.234 1.234 0 012.057-1.366l6.485 9.769c.245.369.273.84.074 1.237l-12.105 24.07c-.217.432-.652.68-1.104.68z"/><path fill="#e92126" d="M0 32.582C0 14.789 14.476.312 32.268.312c17.793 0 32.269 14.477 32.269 32.27 0 17.793-14.476 32.268-32.269 32.268C14.476 64.85 0 50.375 0 32.582zm2.469 0c0 16.43 13.368 29.8 29.799 29.8 16.432 0 29.8-13.37 29.8-29.8 0-16.432-13.368-29.8-29.8-29.8-16.431 0-29.799 13.368-29.799 29.8z"/></svg>