<svg xmlns="http://www.w3.org/2000/svg" viewBox="0 0 64.54 64.54"><defs><style>.cls-1{fill:#676767}</style></defs><g id="Слой_2" data-name="Слой 2"><g id="Layer_1" data-name="Layer 1"><path class="cls-1" d="M32.27 50.42a1.23 1.23 0 01-.9-.39L8.74 26a1.23 1.23 0 010-1.7l9.36-9.8a1.24 1.24 0 01.89-.39h26.55a1.2 1.2 0 01.89.39l9.36 9.76a1.24 1.24 0 010 1.7L33.17 50a1.24 1.24 0 01-.9.42zM11.34 25.13l20.93 22.26L53.2 25.13 45 16.58H19.52z"/><path class="cls-1" d="M54.9 26.35H9.64a1.24 1.24 0 110-2.47H54.9a1.24 1.24 0 010 2.47z"/><path class="cls-1" d="M32.27 50.42a1.23 1.23 0 01-1.1-.68L19.06 25.67a1.25 1.25 0 01.07-1.24l6.49-9.76A1.23 1.23 0 1127.68 16l-6.09 9.2 11.78 23.43a1.23 1.23 0 01-.55 1.66 1.2 1.2 0 01-.55.13z"/><path class="cls-1" d="M32.27 50.42a1.23 1.23 0 01-1.1-1.79L43 25.2 36.86 16a1.23 1.23 0 112.06-1.36l6.48 9.76a1.23 1.23 0 01.08 1.24l-12.11 24.1a1.24 1.24 0 01-1.1.68z"/><path class="cls-1" d="M32.27 64.54a32.27 32.27 0 1132.27-32.27 32.31 32.31 0 01-32.27 32.27zm0-62.07a29.8 29.8 0 1029.8 29.8 29.84 29.84 0 00-29.8-29.8z"/></g></g></svg>