<svg class="ic" xmlns="http://www.w3.org/2000/svg" width="65" height="65"><path fill="#5f6163" d="M44.962 55.832l-5.133-3.259-3.226 3.17a1.484 1.484 0 01-1.066.426 2.01 2.01 0 01-.888-.222 2.66 2.66 0 01-1.32-1.55l-1.084-2.58-1.083 2.578a2.657 2.657 0 01-1.318 1.551 2 2 0 01-.891.223 1.49 1.49 0 01-1.073-.434l-3.218-3.162-5.138 3.263a1.986 1.986 0 01-1.076.333c-.327 0-.635-.094-.893-.273-.564-.394-.798-1.113-.611-1.877l4.963-19.512c-.961-.229-1.944-.567-2.589-1.454-.778-1.068-.644-2.356-.527-3.492.061-.587.127-1.238.016-1.579-.099-.307-.501-.75-.89-1.18-.751-.832-1.676-1.856-1.676-3.22 0-1.366.925-2.389 1.669-3.209.398-.442.798-.887.897-1.19.111-.343.045-.992-.014-1.566-.119-1.15-.253-2.44.525-3.507.78-1.072 2.052-1.343 3.174-1.583.569-.12 1.206-.255 1.488-.46.276-.203.597-.759.88-1.25.548-.957 1.231-2.145 2.51-2.559.29-.094.598-.14.917-.14.911 0 1.772.381 2.532.72.539.238 1.15.51 1.53.51.379 0 .99-.272 1.529-.51.762-.339 1.624-.72 2.531-.72.322 0 .631.046.919.14 1.277.413 1.958 1.6 2.505 2.552.291.502.612 1.056.884 1.255.283.207.92.34 1.482.461 1.129.241 2.401.512 3.182 1.585.773 1.063.642 2.35.527 3.484-.062.59-.13 1.241-.019 1.586.1.308.505.757.897 1.19.747.822 1.672 1.845 1.672 3.21s-.925 2.39-1.67 3.211c-.392.434-.799.881-.898 1.19-.112.345-.044 1 .016 1.575.118 1.146.249 2.43-.524 3.494-.693.951-1.77 1.272-2.786 1.5l4.952 19.468c.185.762-.048 1.481-.608 1.876-.261.18-.57.274-.896.274-.368 0-.742-.116-1.082-.337zm-9.485-2.953l3.731-2.765 5.41 2.542-4.436-16.89c-.117.187-.233.39-.345.584-.554.962-1.235 2.142-2.51 2.554a2.93 2.93 0 01-.918.144c-.905 0-1.767-.383-2.529-.722-.541-.239-1.152-.51-1.531-.51-.38 0-.991.271-1.531.51a1.266 1.266 0 01-.076.033zm-6.462 0l1.899-5.302-2.674-8.529a3.002 3.002 0 01-.87-.143c-1.276-.413-1.958-1.598-2.507-2.55a12.88 12.88 0 00-.495-.815l-4.495 17.116 5.41-3.419zm5.952-17.01c.545.243 1.107.492 1.442.492a.293.293 0 00.089-.01c.296-.097.726-.846 1.011-1.342.279-.483.545-.945.881-1.359.243-.299.487-.537.747-.724.381-.277.851-.493 1.436-.66a13.51 13.51 0 011.05-.253c.571-.12 1.41-.3 1.584-.54.171-.236.088-1.045.027-1.635-.087-.852-.185-1.803.1-2.685.277-.857.908-1.55 1.462-2.165.412-.454.976-1.076.976-1.407 0-.33-.564-.952-.976-1.406-.556-.616-1.185-1.31-1.462-2.162-.285-.886-.187-1.838-.101-2.678.062-.6.145-1.409-.025-1.643-.174-.24-1.009-.419-1.562-.538-.827-.174-1.759-.37-2.51-.916-.737-.537-1.209-1.357-1.625-2.08-.287-.5-.717-1.25-1.013-1.345a.248.248 0 00-.089-.012c-.335 0-.897.25-1.44.491-.784.348-1.671.741-2.62.741-.953 0-1.838-.393-2.618-.74-.544-.242-1.107-.492-1.444-.492a.301.301 0 00-.088.012c-.291.094-.72.836-1.003 1.326-.427.742-.898 1.562-1.631 2.098-.755.547-1.687.744-2.509.916-.557.12-1.392.298-1.568.54-.169.234-.086 1.045-.025 1.638.088.84.188 1.793-.101 2.682-.28.861-.909 1.553-1.463 2.163-.409.454-.972 1.077-.972 1.405 0 .33.56.95.968 1.402.56.62 1.189 1.313 1.468 2.17.288.884.188 1.84.1 2.682-.061.591-.144 1.402.026 1.637.176.241 1.014.42 1.568.538l.096.02c.283.061.567.121.843.198.663.18 1.161.402 1.567.701.259.184.505.423.746.723.334.412.6.874.857 1.32.313.542.742 1.283 1.033 1.38a.35.35 0 00.088.01c.296-.013.681-.165.949-.277.161-.067.326-.14.495-.216.78-.346 1.665-.739 2.618-.739.949 0 1.836.393 2.618.74z"/><path fill="#5f6163" d="M.08 32.198c0-17.793 14.476-32.27 32.269-32.27s32.269 14.477 32.269 32.27c0 17.793-14.476 32.268-32.269 32.268S.08 49.99.08 32.198zm2.469 0c0 16.43 13.368 29.8 29.8 29.8 16.432 0 29.8-13.37 29.8-29.8 0-16.432-13.368-29.8-29.8-29.8-16.432 0-29.8 13.368-29.8 29.8z"/><path fill="none" stroke="#5f6163" stroke-linecap="round" stroke-linejoin="round" stroke-miterlimit="50" stroke-width="2.63" d="M33 29.591v0-10.526 0l-3.766 3.088v0"/></svg>