<svg xmlns="http://www.w3.org/2000/svg" width="65" height="65"><path fill="#5f6163" d="M.442 32.738C.442 14.946 14.918.47 32.712.47 50.503.47 64.98 14.946 64.98 32.738c0 17.793-14.476 32.269-32.269 32.269S.442 50.53.442 32.737zm2.47 0c0 16.43 13.367 29.8 29.8 29.8 16.431 0 29.8-13.37 29.8-29.8 0-16.432-13.369-29.8-29.8-29.8-16.433 0-29.8 13.368-29.8 29.8z"/><path fill="none" stroke="#5f6163" stroke-linecap="round" stroke-linejoin="round" stroke-miterlimit="50" stroke-width="2.63" d="M46.617 27.476c-.526 3.277-11.313 18.585-15.245 20.91-4.458 2.637-12.3-2.738-12.3-2.738a1.006 1.006 0 01-.143-1.401l5.189-6.338a.985.985 0 011.392-.135s5.313 3.783 6.347 2.02c2.543-2.678 4.716-5.876 6.616-9.454 1.552-2.213-3.743-5.305-3.743-5.305a.994.994 0 01-.288-1.383l4.48-6.842a1.007 1.007 0 011.383-.287s7.332 4.608 6.312 10.953z"/></svg>