<svg xmlns="http://www.w3.org/2000/svg" viewBox="0 0 64.54 64.54"><g data-name="Слой 2"><g data-name="Layer 1"><path d="M32.27 64.54a32.27 32.27 0 1132.27-32.27 32.31 32.31 0 01-32.27 32.27zm0-62.07a29.8 29.8 0 1029.8 29.8 29.84 29.84 0 00-29.8-29.8z" fill="#cc2128"/><path d="M46.17 27c-.52 3.27-11.31 18.58-15.24 20.91-4.46 2.63-12.3-2.74-12.3-2.74a1 1 0 01-.14-1.4l5.18-6.34a1 1 0 011.4-.14s5.31 3.79 6.34 2A42.26 42.26 0 0038 29.87c1.55-2.21-3.74-5.31-3.74-5.31a1 1 0 01-.26-1.38l4.48-6.84a1 1 0 011.38-.29s7.33 4.61 6.31 10.95z" fill="none" stroke="#cc2128" stroke-linecap="round" stroke-linejoin="round" stroke-width="2.63"/></g></g></svg>