<svg xmlns="http://www.w3.org/2000/svg" width="65" height="66"><path fill="#5f6163" d="M0 33.01C0 15.217 14.476.741 32.268.741c17.793 0 32.269 14.476 32.269 32.27 0 17.791-14.476 32.266-32.269 32.266C14.476 65.277 0 50.802 0 33.01zm2.469 0c0 16.431 13.368 29.8 29.799 29.8 16.432 0 29.8-13.369 29.8-29.8 0-16.432-13.368-29.8-29.8-29.8-16.431 0-29.799 13.368-29.799 29.8z"/><path fill="#5f6163" d="M47.227 31.174a1.448 1.448 0 01-1.728-1.105c-1.47-6.655-7.705-11.199-14.504-10.567a13.527 13.527 0 00-3.407.77c-5.232 1.917-8.725 6.744-8.901 12.295a1.444 1.444 0 01-1.313 1.397l-.166.006a1.456 1.456 0 01-1.42-1.494c.215-6.742 4.455-12.602 10.802-14.928a16.409 16.409 0 014.137-.932c8.25-.768 15.818 4.748 17.602 12.83a1.452 1.452 0 01-.915 1.673zM37.924 48.48a16.567 16.567 0 01-4.146.934c-8.298.772-15.876-4.783-17.626-12.92a1.459 1.459 0 01.917-1.667l.195-.056a1.423 1.423 0 011.084.194c.328.209.555.536.638.916 1.442 6.705 7.686 11.282 14.523 10.645a13.56 13.56 0 003.418-.771c5.254-1.925 8.744-6.781 8.889-12.37a1.443 1.443 0 011.493-1.411 1.454 1.454 0 011.407 1.487c-.18 6.787-4.414 12.68-10.792 15.019z"/><path fill="#5f6163" d="M15.43 42.529a1.446 1.446 0 01-1.888-.946 1.434 1.434 0 01.116-1.105l2.642-4.975c.172-.318.446-.556.778-.678a1.45 1.45 0 011.022.01l4.933 1.938c.356.137.642.408.799.763a1.452 1.452 0 01-.826 1.951c-.33.12-.691.116-1.02-.01l-3.738-1.473-2.04 3.85a1.45 1.45 0 01-.778.675zm32.002-11.41a1.442 1.442 0 01-1.023-.012l-4.931-1.935a1.434 1.434 0 01-.799-.763 1.437 1.437 0 01-.028-1.111 1.445 1.445 0 011.874-.83l3.738 1.472 2.039-3.85a1.445 1.445 0 011.146-.758 1.45 1.45 0 011.405 2.133l-2.642 4.977a1.456 1.456 0 01-.779.677z"/></svg>