<svg xmlns="http://www.w3.org/2000/svg" viewBox="0 0 64.54 64.54"><defs><style>.cls-1{fill:#cc2128}</style></defs><g id="Слой_2" data-name="Слой 2"><g id="Layer_1" data-name="Layer 1"><path class="cls-1" d="M32.27 64.54a32.27 32.27 0 1132.27-32.27 32.31 32.31 0 01-32.27 32.27zm0-62.07a29.8 29.8 0 1029.8 29.8 29.84 29.84 0 00-29.8-29.8z"/><path class="cls-1" d="M47.23 30.43a1.42 1.42 0 01-1.1-.19 1.44 1.44 0 01-.63-.91 13.57 13.57 0 00-26.81 2.5 1.45 1.45 0 01-1 1.31 1.53 1.53 0 01-.37.08h-.16a1.46 1.46 0 01-1.42-1.5 16.47 16.47 0 0132.54-3 1.45 1.45 0 01-.92 1.67zm-9.31 17.31a16.25 16.25 0 01-4.14.93 16.47 16.47 0 01-17.63-12.92 1.45 1.45 0 01.92-1.66l.19-.06a1.5 1.5 0 011.09.19 1.48 1.48 0 01.64.92 13.55 13.55 0 0014.52 10.64 13 13 0 003.42-.78 13.49 13.49 0 008.89-12.37 1.42 1.42 0 01.94-1.32 1.71 1.71 0 01.55-.09 1.47 1.47 0 011.41 1.49 16.38 16.38 0 01-10.8 15.03z"/><path class="cls-1" d="M15.43 41.79a1.55 1.55 0 01-.36.08 1.39 1.39 0 01-.83-.17 1.43 1.43 0 01-.7-.86 1.41 1.41 0 01.12-1.1l2.64-5a1.45 1.45 0 011.8-.67L23 36a1.45 1.45 0 01.8.76 1.43 1.43 0 010 1.11 1.44 1.44 0 01-1.87.84l-3.74-1.48-2 3.85a1.44 1.44 0 01-.76.71zm32-11.41a1.49 1.49 0 01-1 0l-4.93-1.94a1.45 1.45 0 01-.8-.76 1.44 1.44 0 011.84-1.94l3.74 1.47 2-3.85a1.44 1.44 0 01.78-.68 1.53 1.53 0 01.37-.08 1.39 1.39 0 01.82.17 1.45 1.45 0 01.58 2l-2.64 5a1.44 1.44 0 01-.76.61z"/></g></g></svg>