<svg xmlns="http://www.w3.org/2000/svg" viewBox="0 0 64.54 64.54"><defs><style>.cls-1{fill:none;stroke:#cc2128;stroke-linecap:round;stroke-linejoin:round;stroke-width:2.63px}</style></defs><g id="Слой_2" data-name="Слой 2"><g id="Layer_1" data-name="Layer 1"><rect class="cls-1" x="14.15" y="28.25" width="6.86" height="19.68" rx="1.97"/><path class="cls-1" d="M50.39 28.86v18.21A1.41 1.41 0 0149 48.48H27.48a1.38 1.38 0 01-1.37-1.37V29.93c.21-2.47 6.43-4.06 10.08-8.74s3.34-8.64 4.62-8.64S43 14.76 43 19s-3.91 8.49-3.91 8.49H49a1.41 1.41 0 011.39 1.37z"/><path d="M32.27 64.54a32.27 32.27 0 1132.27-32.27 32.31 32.31 0 01-32.27 32.27zm0-62.07a29.8 29.8 0 1029.8 29.8 29.84 29.84 0 00-29.8-29.8z" fill="#cc2128"/></g></g></svg>