<svg xmlns="http://www.w3.org/2000/svg" width="31" height="31" viewBox="0 0 31 31"><g><g><path fill="#8b8e91" d="M19.726 7.163a4.026 4.026 0 0 1 4.02 4.02v8.71c0 2.22-1.8 4.02-4.02 4.02h-8.71c-2.21 0-4.02-1.8-4.02-4.02v-8.71c0-2.21 1.81-4.02 4.02-4.02zm-4.35 13.56c2.85 0 5.18-2.33 5.18-5.18 0-2.86-2.33-5.18-5.18-5.18a5.182 5.182 0 0 0-5.18 5.18c0 2.85 2.32 5.18 5.18 5.18zm5.4-9.41c.68 0 1.24-.56 1.24-1.24 0-.69-.56-1.25-1.24-1.25-.69 0-1.25.56-1.25 1.25 0 .68.56 1.24 1.25 1.24zm-5.4.79a3.44 3.44 0 1 1 0 6.88 3.44 3.44 0 0 1 0-6.88z"/></g><g><path fill="#8b8e91" d="M23.686.693c3.59 0 6.54 2.94 6.54 6.53v16.62c0 3.6-2.95 6.55-6.54 6.55H7.056c-3.59 0-6.53-2.95-6.53-6.55V7.223c0-3.59 2.94-6.53 6.53-6.53zm1.8 10.49c0-3.17-2.58-5.75-5.76-5.75h-8.71c-3.17 0-5.75 2.58-5.75 5.75v8.71c0 3.18 2.58 5.76 5.75 5.76h8.71c3.18 0 5.76-2.58 5.76-5.76z"/></g></g></svg>