<svg xmlns="http://www.w3.org/2000/svg" width="31" height="31" viewBox="0 0 31 31"><g><g><path fill="#8b8e91" d="M23.686.433c3.59 0 6.53 2.95 6.53 6.54v16.61c0 3.61-2.94 6.55-6.53 6.55H7.066c-3.6 0-6.53-2.94-6.53-6.55V6.973c0-3.59 2.93-6.54 6.53-6.54zm-8.31 6.82c-2.29 0-4.14 1.86-4.14 4.15 0 2.28 1.85 4.14 4.14 4.14 2.29 0 4.14-1.86 4.14-4.14 0-2.29-1.85-4.15-4.14-4.15zm4.08 10.67c.57-.35.74-1.1.38-1.67-.35-.57-1.1-.74-1.67-.38a5.251 5.251 0 0 1-5.58 0 1.203 1.203 0 0 0-1.67.38c-.36.57-.19 1.32.38 1.67.75.47 1.56.81 2.4 1l-2.31 2.32a1.194 1.194 0 0 0 0 1.71c.23.24.54.36.85.36.32 0 .63-.12.86-.36l2.28-2.27 2.28 2.27c.47.48 1.24.48 1.71 0 .48-.47.48-1.24 0-1.71l-2.31-2.32c.84-.19 1.65-.52 2.4-1zm-4.08-8.24c.95 0 1.72.77 1.72 1.72 0 .94-.77 1.71-1.72 1.71s-1.72-.77-1.72-1.71c0-.95.77-1.72 1.72-1.72z"/></g></g></svg>