<svg xmlns="http://www.w3.org/2000/svg" width="31" height="30" viewBox="0 0 31 30"><g><g><path fill="#8b8e91" d="M8.745 10.273l-.08-.12s.02-1.44 1.62-2.72c1.681-1.16 3.07-.75 3.07-.75l.09.11c-.59.12-1.62.42-2.729 1.23-1.09.83-1.68 1.72-1.97 2.25z"/></g><g><path fill="#8b8e91" d="M10.266 12.323l-.891-1.21.04-.09c.021-.07.481-1.22 1.851-2.27 1.399-1 2.63-1.1 2.7-1.1l.1-.01.889 1.2a7.15 7.15 0 0 0-2.719 1.22c-1.1.84-1.691 1.73-1.97 2.26z"/></g><g><path fill="#8b8e91" d="M17.255 17.273a5.084 5.084 0 0 1-1.21 2.86l-5.149-6.96.04-.1c.02-.07.43-1.11 1.65-2.11z"/></g><g><path fill="#8b8e91" d="M12.986 10.663c1.32-.87 2.43-.96 2.5-.96l.1-.01 5.16 6.96c-.61.26-1.73.61-3.08.33z"/></g><g><path fill="#8b8e91" d="M21.096 17.133l.63 4.77c-.21.05-.39.14-.54.26-.15.1-.3.25-.41.45l-4.37-2.01c.45-.5 1.2-1.52 1.4-3.01 1.48.24 2.67-.17 3.29-.46z"/></g><g><path fill="#8b8e91" d="M23.686.313c3.59 0 6.53 2.94 6.53 6.53v16.62c0 3.6-2.94 6.55-6.53 6.55H7.066c-3.6 0-6.53-2.95-6.53-6.55V6.843c0-3.59 2.93-6.53 6.53-6.53zm-.41 24.67l-1.07-8.36-7.93-10.71s-1.65-1.58-4.46.5l-.37.27c-2.81 2.08-1.79 4.12-1.79 4.12l7.94 10.72z"/></g></g></svg>