<svg xmlns="http://www.w3.org/2000/svg" width="31" height="31" viewBox="0 0 31 31"><g><g><path fill="#4dac38" d="M23.686.493c3.59 0 6.53 2.95 6.53 6.54v16.61c0 3.61-2.94 6.55-6.53 6.55H7.066c-3.6 0-6.53-2.94-6.53-6.55V7.033c0-3.59 2.93-6.54 6.53-6.54zm-2.45 11.85c.59-.43 1.1-.96 1.51-1.57-.54.24-1.13.41-1.74.48.63-.38 1.11-.97 1.33-1.67-.58.34-1.23.59-1.92.73-.55-.59-1.34-.96-2.21-.96a3.026 3.026 0 0 0-2.94 3.72 8.595 8.595 0 0 1-6.23-3.16c-.27.44-.41.96-.41 1.52 0 1.05.53 1.97 1.34 2.52-.49-.02-.96-.16-1.37-.38v.04c0 1.46 1.04 2.68 2.43 2.96-.26.07-.52.11-.8.11-.19 0-.38-.02-.57-.06.39 1.2 1.5 2.08 2.83 2.1-1.04.81-2.34 1.3-3.76 1.3-.24 0-.48-.02-.72-.04 1.34.85 2.93 1.35 4.63 1.35 5.57 0 8.61-4.6 8.61-8.6 0-.13 0-.26-.01-.39z"/></g></g></svg>