<svg xmlns="http://www.w3.org/2000/svg" width="31" height="31" viewBox="0 0 31 31"><g><g><path fill="#8b8e91" d="M23.686.563c3.59 0 6.54 2.95 6.54 6.54v16.61c0 3.61-2.95 6.55-6.54 6.55H7.056c-3.59 0-6.53-2.94-6.53-6.55V7.103c0-3.59 2.94-6.54 6.53-6.54zm-.82 16.93c-1.6-1.48-1.39-1.24.54-3.81 1.18-1.57 1.65-2.52 1.5-2.93-.14-.39-1.01-.29-1.01-.29l-2.87.02s-.21-.03-.37.06c-.16.1-.25.31-.25.31s-.46 1.21-1.07 2.24c-1.28 2.18-1.79 2.29-2 2.16-.48-.32-.36-1.27-.36-1.94 0-2.11.32-2.99-.62-3.21-.32-.08-.55-.13-1.35-.14-1.02-.01-1.89.01-2.38.25-.33.16-.58.51-.43.53.19.03.62.12.85.43.3.4.29 1.3.29 1.3s.16 2.48-.4 2.79c-.39.21-.92-.22-2.06-2.19-.58-1.01-1.03-2.13-1.03-2.13s-.08-.21-.23-.32a1.362 1.362 0 0 0-.44-.18l-2.74.02s-.41.01-.56.19c-.13.16-.01.49-.01.49s2.14 5 4.56 7.52c2.22 2.31 4.74 2.16 4.74 2.16h1.15s.34-.04.52-.23c.16-.17.16-.5.16-.5s-.03-1.53.68-1.76c.71-.22 1.61 1.48 2.56 2.14.72.5 1.27.39 1.27.39l2.56-.04s1.33-.08.7-1.13c-.05-.09-.37-.78-1.9-2.2z"/></g></g></svg>