<svg xmlns="http://www.w3.org/2000/svg" width="31" height="30" viewBox="0 0 31 30"><g><g><path fill="#8b8e91" d="M18.676 18.203c.07.23.1.61.1 1.15v2.3c0 .53-.03.91-.1 1.15-.14.43-.42.65-.83.65-.37 0-.73-.21-1.08-.64v.56h-1.04v-7.72h1.04v2.52c.34-.41.69-.62 1.08-.62.41 0 .69.22.83.65zm-.94 1.07c0-.52-.15-.78-.45-.78-.17 0-.35.08-.52.25v3.51c.17.17.35.25.52.25.3 0 .45-.25.45-.77z"/></g><g><path fill="#8b8e91" d="M20.625 20.694v1.02c0 .53.181.79.54.79.25 0 .4-.14.46-.41.011-.06.021-.29.021-.71h1.07v.15c0 .34-.01.57-.02.67-.04.23-.12.44-.25.63-.29.41-.71.62-1.26.62-.54 0-.96-.2-1.26-.59-.22-.29-.33-.74-.33-1.35v-2.02c0-.61.1-1.06.32-1.35.3-.4.71-.59 1.25-.59.52 0 .93.19 1.23.59.21.29.32.74.32 1.35v1.2zm0-.87h1.051v-.54c0-.53-.18-.79-.52-.79-.35 0-.53.26-.53.79z"/></g><g><path fill="#8b8e91" d="M23.686.373c3.59 0 6.53 2.95 6.53 6.53v16.62c0 3.6-2.94 6.55-6.53 6.55H7.066c-3.6 0-6.53-2.95-6.53-6.55V6.903c0-3.58 2.93-6.53 6.53-6.53zm-6.13 11c0 .41.04.69.09.86.11.3.34.44.68.44.39 0 .79-.24 1.21-.72v.63h1.05v-5.81h-1.05v4.45c-.24.33-.46.49-.67.49-.14 0-.22-.08-.25-.25-.01-.03-.01-.16-.01-.41v-4.28h-1.05zm-3.98-.67c0 .62.11 1.08.33 1.37.29.4.71.6 1.23.6.53 0 .94-.2 1.23-.6.22-.29.32-.75.32-1.37v-2.03c0-.62-.1-1.08-.32-1.37-.29-.4-.7-.6-1.23-.6-.52 0-.94.2-1.23.6-.22.29-.33.75-.33 1.37zm-4.04-5.91c.25.72.5 1.45.75 2.17.37 1.09.61 1.91.71 2.47v3.15h1.17v-3.15l1.4-4.64h-1.18l-.79 3.06-.83-3.06zm14.16 18.93c.3-1.31.3-2.73.3-4.08s.01-2.77-.29-4.08c-.22-.91-.97-1.59-1.87-1.69-2.14-.24-4.3-.24-6.46-.24-2.15 0-4.32 0-6.46.24-.9.1-1.65.78-1.86 1.69-.3 1.31-.31 2.73-.31 4.08s0 2.77.31 4.08c.21.92.96 1.59 1.86 1.69 2.14.24 4.3.24 6.46.24 2.15 0 4.32 0 6.46-.24.9-.1 1.65-.77 1.86-1.69zm-8.56-16.07c.34 0 .5.27.5.81v2.44c0 .54-.16.81-.5.81-.34 0-.5-.27-.5-.81v-2.44c0-.54.16-.81.5-.81z"/></g><g><path fill="#8b8e91" d="M8.036 15.653h3.63v1.09h-1.24v6.63h-1.16v-6.63h-1.23z"/></g><g><path fill="#8b8e91" d="M13.776 17.623h1.04v5.75h-1.04v-.63c-.41.48-.81.71-1.19.71-.34 0-.57-.14-.67-.43-.06-.17-.09-.45-.09-.85v-4.55h1.04v4.23c0 .25 0 .38.01.41.02.16.1.24.24.24.21 0 .43-.16.66-.48z"/></g></g></svg>