<svg xmlns="http://www.w3.org/2000/svg" width="30" height="31" viewBox="0 0 30 31"><g><g><path fill="#e3d60b" d="M24.45 17.461a.44.44 0 0 1-.103.064l-2.828 1.253-1.557 2.261a.448.448 0 1 1-.739-.508l1.45-2.104c-.463-.682-.416-1.035-.28-1.68.026-.113.052-.239.079-.385.039-.212-.047-.469-.231-.69a.992.992 0 0 0-.677-.357 1 1 0 0 0-.861 1.631.448.448 0 0 1-.69.573 1.898 1.898 0 0 1 .249-2.669c.389-.324.88-.476 1.385-.429.505.048.96.288 1.283.678.357.43.51.95.423 1.425-.028.155-.056.29-.082.41-.1.466-.127.595.099.93l2.613-1.158a.447.447 0 0 1 .468.755z"/></g><g><path fill="#2e2c2c" d="M19.309 7.216c2.21 0 4.02 1.8 4.02 4.02v8.71c0 2.22-1.81 4.02-4.02 4.02h-8.71a4.02 4.02 0 0 1-4.02-4.02v-8.71a4.02 4.02 0 0 1 4.02-4.02zm-4.36 13.55c2.86 0 5.18-2.32 5.18-5.18 0-2.85-2.32-5.17-5.18-5.17-2.85 0-5.18 2.32-5.18 5.17 0 2.86 2.33 5.18 5.18 5.18zm5.4-9.41c.69 0 1.24-.55 1.24-1.24s-.55-1.24-1.24-1.24-1.24.55-1.24 1.24.55 1.24 1.24 1.24zm-5.4.79c1.9 0 3.44 1.54 3.44 3.44a3.45 3.45 0 0 1-3.44 3.45 3.449 3.449 0 0 1-3.44-3.45c0-1.9 1.54-3.44 3.44-3.44z"/></g><g><path fill="#2e2c2c" d="M23.269.736c3.59 0 6.53 2.95 6.53 6.54v16.61c0 3.61-2.94 6.55-6.53 6.55H6.639c-3.59 0-6.54-2.94-6.54-6.55V7.276c0-3.59 2.95-6.54 6.54-6.54zm1.79 10.5c0-3.17-2.58-5.76-5.75-5.76h-8.71c-3.18 0-5.76 2.59-5.76 5.76v8.71c0 3.17 2.58 5.75 5.76 5.75h8.71c3.17 0 5.75-2.58 5.75-5.75z"/></g></g></svg>