<svg xmlns="http://www.w3.org/2000/svg" width="31" height="31" viewBox="0 0 31 31"><g><g><path fill="#2e2c2c" d="M18.409 15.516v.37c-.09 1.63-1.33 3.01-3.21 3.01-1.69 0-2.98-1.21-2.98-3.13 0-1.72 1.07-3.23 2.99-3.23h.06c1.66 0 3.04 1.12 3.14 2.98z"/></g><g><path fill="#2e2c2c" d="M23.81.736c3.59 0 6.54 2.95 6.54 6.54v16.61c0 3.61-2.95 6.55-6.54 6.55H7.197c-3.599 0-6.54-2.94-6.54-6.55V7.276c0-3.59 2.941-6.54 6.54-6.54zm-2.09 20.23c2.81-2.19 2.978-7.81.1-10.82-2.75-2.87-7.32-3.44-10.782-1.38-4.519 2.69-4.609 7.89-2.909 10.84 2.53 4.38 7.93 4.46 9.88 3.63 1.28-.54.71-2.22-.53-1.72-2.44.99-6.55 0-7.99-3.32-1.32-3.04.04-6.28 2.16-7.74 1.99-1.38 5.74-1.78 8.54.67 3 2.62 1.73 7.15.66 8.25-.27.28-.76.05-.72-.38v-6.63c0-.19-.13-.78-.75-.78h-.1c-.4 0-.69.32-.69.75-.88-.89-2.09-1.46-3.37-1.46-2.54 0-4.77 2.26-4.77 4.82 0 2.54 2.23 4.77 4.77 4.77 1.28 0 2.46-.52 3.34-1.39l.02.47c-.02 1.45 1.87 2.41 3.14 1.42z"/></g></g></svg>