<svg xmlns="http://www.w3.org/2000/svg" width="34" height="31" viewBox="0 0 34 31"><g><g><path fill="#e3d60b" d="M26.84 27.963a.717.717 0 0 1-.417-.364l-.238-.482c-.198-.4.08-.73.182-.854l2.203-2.353-4.96-9.188c-2.074-3.84-5.01-5.582-7.856-4.658-1.543.5-2.68 1.545-3.285 3.019-.758 1.842-.654 4.279.241 6.363 1.727-1.457 4.153-1.788 6.918-.922 3.253 1.019 6.346 3.54 6.618 5.392.466 3.174-5.07 3.987-7.155 4.293-.296.043-.53.079-.718.1-.04.008-.08.014-.12.02l-.06.01a3.48 3.48 0 0 1-2.243 1.303 3.493 3.493 0 0 1-3.959-2.944 3.466 3.466 0 0 1 .232-1.846.45.45 0 0 1-.43-.296c-.6-1.654-.53-2.86.264-4.383-1.14-2.376-1.309-5.262-.418-7.43.71-1.725 2.037-2.947 3.84-3.532 3.29-1.068 6.624.833 8.92 5.085l4.941 9.154 3.426-.36c.187-.008.618-.03.817.373l.237.482a.723.723 0 0 1-.326.968l-6.103 3.013a.73.73 0 0 1-.214.068.732.732 0 0 1-.337-.031zm-13.96-1.396a2.594 2.594 0 0 0 5.13-.753 2.596 2.596 0 0 0-2.943-2.19 2.596 2.596 0 0 0-2.188 2.943zm14.17.277l.1.202 5.791-2.86-.1-.202h-.006l-3.333.349a.458.458 0 0 1-.245.154zm-8.09.479c4.47-.657 6.622-1.76 6.4-3.277-.196-1.323-2.915-3.7-6-4.667-1.536-.48-4.384-.972-6.393 1.049a.457.457 0 0 1-.092.114c-.687 1.297-.757 2.235-.27 3.623a3.472 3.472 0 0 1 2.332-1.427 3.493 3.493 0 0 1 3.796 4.618l.227-.033zm-3.28.467a1.617 1.617 0 1 1-.468-3.199 1.617 1.617 0 0 1 .467 3.199zm-.948-1.495a.72.72 0 1 0 0 0z"/></g><g><path fill="#2e2c2c" d="M8.939 10.696l-.08-.11s.02-1.45 1.62-2.72c1.68-1.16 3.07-.75 3.07-.75l.09.11c-.59.11-1.62.42-2.73 1.22-1.09.83-1.68 1.72-1.97 2.25z"/></g><g><path fill="#2e2c2c" d="M10.46 12.746l-.892-1.2.04-.09c.021-.07.47-1.22 1.851-2.27 1.4-1.01 2.63-1.1 2.7-1.1.01-.01.1-.02.1-.02l.89 1.21c-.58.11-1.61.42-2.72 1.22-1.1.83-1.69 1.72-1.97 2.25z"/></g><g><path fill="#2e2c2c" d="M17.449 17.706a5.055 5.055 0 0 1-1.21 2.85l-5.15-6.96.04-.09c.02-.07.43-1.11 1.65-2.12z"/></g><g><path fill="#2e2c2c" d="M13.18 11.096c1.32-.88 2.43-.96 2.5-.96l.1-.01 5.16 6.96c-.612.26-1.73.61-3.09.32z"/></g><g><path fill="#2e2c2c" d="M21.279 17.566l.64 4.77c-.21.04-.39.14-.54.26-.15.1-.3.25-.41.44l-4.37-2c.45-.51 1.2-1.53 1.4-3.01a5.69 5.69 0 0 0 3.28-.46z"/></g><g><path fill="#2e2c2c" d="M23.88.736c3.59 0 6.529 2.95 6.529 6.54v16.61c0 3.61-2.94 6.55-6.53 6.55H7.26c-3.6 0-6.53-2.94-6.53-6.55V7.276c0-3.59 2.93-6.54 6.53-6.54zm-.41 24.68l-1.071-8.36-7.93-10.72s-1.65-1.57-4.46.51l-.37.27c-2.81 2.08-1.79 4.12-1.79 4.12l7.94 10.71z"/></g></g></svg>