<svg xmlns="http://www.w3.org/2000/svg" width="31" height="31" viewBox="0 0 31 31"><g><g><path fill="#2e2c2c" d="M9.489 15.946h3.04v.91h-1.05v5.56h-.97v-5.56H9.49z"/></g><g><path fill="#2e2c2c" d="M14.289 17.596h.88v4.82h-.88v-.53c-.34.4-.67.6-.99.6-.28 0-.48-.12-.57-.36-.04-.15-.07-.38-.07-.72v-3.81h.87v3.55c0 .2 0 .31.01.34.02.13.09.2.2.2.18 0 .36-.13.55-.41z"/></g><g><path fill="#2e2c2c" d="M18.389 18.086c.06.19.09.51.09.97v1.91c0 .45-.03.77-.09.97-.11.36-.35.55-.69.55-.31 0-.61-.18-.91-.54v.47h-.87v-6.47h.87v2.12c.29-.35.59-.53.91-.53.34 0 .58.19.69.55zm-.78.9c0-.44-.13-.66-.38-.66-.14 0-.29.07-.44.21v2.94c.15.14.3.21.44.21.25 0 .38-.21.38-.65z"/></g><g><path fill="#2e2c2c" d="M20.029 20.166v.85c0 .45.15.67.45.67.21 0 .34-.12.39-.35 0-.05.02-.24.02-.59h.89v.13c0 .28-.01.47-.02.56-.03.19-.1.37-.21.52-.24.35-.6.53-1.05.53-.46 0-.81-.17-1.06-.5-.18-.24-.28-.62-.28-1.13v-1.69c0-.51.09-.89.27-1.13.25-.33.6-.5 1.05-.5.43 0 .78.17 1.03.5.18.24.27.62.27 1.13v1zm0-.73h.87v-.44c0-.45-.14-.67-.43-.67s-.44.22-.44.67z"/></g><g><path fill="#2e2c2c" d="M23.94.735c3.59 0 6.53 2.951 6.53 6.541v16.61c0 3.61-2.94 6.55-6.53 6.55H7.32c-3.6 0-6.532-2.94-6.532-6.55V7.276c0-3.59 2.931-6.54 6.531-6.54zm-6.48 11.63c0 .341.03.58.078.721.08.25.281.36.561.36.33 0 .66-.19 1.01-.59v.53h.88v-4.87h-.88v3.72c-.19.28-.38.41-.56.41-.11 0-.18-.07-.2-.2-.01-.03-.01-.14-.01-.35v-3.58h-.88zm-3.33-.559c0 .52.09.9.27 1.15.25.33.59.49 1.03.49.438 0 .79-.16 1.03-.49.18-.25.27-.63.27-1.15v-1.7c0-.52-.09-.9-.27-1.15-.24-.33-.592-.5-1.03-.5-.44 0-.78.17-1.03.5-.18.25-.27.63-.27 1.15zm-3.39-4.95c.21.6.418 1.21.628 1.82.311.91.511 1.59.601 2.06v2.65h.97v-2.65l1.18-3.88h-.99l-.66 2.56-.7-2.56zm11.86 15.85c.25-1.1.25-2.29.25-3.42 0-1.12 0-2.32-.25-3.41-.17-.77-.8-1.33-1.562-1.42-1.789-.2-3.599-.2-5.409-.2-1.8 0-3.61 0-5.4.2-.76.09-1.39.65-1.57 1.42-.25 1.09-.25 2.29-.25 3.41 0 1.13 0 2.32.25 3.42.18.77.81 1.33 1.56 1.42 1.79.2 3.61.2 5.41.2 1.81 0 3.62 0 5.41-.2a1.84 1.84 0 0 0 1.56-1.42zm-7.17-13.45c.28 0 .42.22.42.67v2.05c0 .45-.14.67-.42.67-.28 0-.42-.22-.42-.67v-2.05c0-.45.14-.67.42-.67z"/></g></g></svg>