<svg xmlns="http://www.w3.org/2000/svg" width="71" height="70" viewBox="0 0 71 70"><defs><clipPath id="7f8ta"><path d="M61.184 52.719c-.975.58-.87-3.57-1.067-4.057l-.023-.011c-.672-.243-12.843 5.251-14.176 6.584-1.356 1.355-.486 3.674-1.066 5.308-.581 1.646-8.878 4.544-11.395 5.216-2.515.684-7.048-.382-10.524-.87 0 0-.047 0-.116-.012-.105 0-.266-.01-.476-.033h-.034c-.336-.012-.65 0-.94.023-2.433.267-3.651 1.959-3.651 1.959s12.646 2.608 15.741 1.646c3.095-.974 33.615-16.912 33.615-16.912v-3.478c-2.991 4.058-4.926 4.058-5.888 4.637z"/></clipPath><clipPath id="7f8tb"><path d="M53.811 14.955s-2.746 24.701-2.607 25.79c.15 1.09-2.075 5.9-5.251 10.34 2.596-1.658 6.271-2.828 8.276-3.675a22.74 22.74 0 0 1 1.17-.452c-.058-.487 1.38-33.811 1.38-33.811z"/></clipPath></defs><g><g/><g clip-path="url(#7f8ta)"><path fill="none" stroke="#1d2329" stroke-linecap="round" stroke-linejoin="round" stroke-miterlimit="50" stroke-width="1.34" d="M-3.409 63.424C.093 60.2 9.493 44.934 9.63 44.984c.258.094-14.06 20.338-13.552 20.535.546.212 16.553-20.78 16.932-20.629.41.162-16.575 22.534-16.327 22.631.261.101 18.413-23.157 18.948-22.957.566.212-18.139 24.928-17.678 25.098.478.177 20.378-25.16 20.93-24.959.534.196-17.984 24.995-17.507 25.168.501.182 20.523-25.593 21.198-25.354.646.23-17.468 25.284-17.237 25.362.236.08 18.907-25.598 19.493-25.408.554.18-16.169 24.83-15.758 24.96.43.134 18.157-25.477 19.12-25.193.913.27-16.258 25.261-15.778 25.394.495.137 18.48-25.539 19.01-25.394.511.14-15.202 25.258-14.925 25.332.287.075 16.783-25.73 17.061-25.658.27.072-14.986 24.96-14.359 25.135.651.182 17.392-25.352 17.82-25.228.417.12-15.52 25.078-14.992 25.233.532.156 17.121-24.808 17.744-24.628.61.177-14.874 24.868-14.546 24.96.34.093 16.48-25.183 16.957-25.053.458.125-14.422 24.645-14.092 24.733.342.091 15.986-25.16 16.558-25.012.56.144-14.768 25.413-14.135 25.58.417.11 12.074-18.53 17.015-25.208C41.654 53.3 33.027 69.81 33.24 69.867c.457.123 16.222-25.75 16.856-25.583.61.163-14.253 24.98-13.63 25.146.638.17 16.526-25.12 17.13-24.959.588.156-14.213 25.013-13.879 25.1.343.086 15.828-25.335 16.203-25.24.363.093-14.179 24.867-13.818 24.96.367.092 15.434-25.028 16.093-24.867.644.157-13.346 24.884-12.84 25.006.44.106 15.093-25.193 15.494-25.099.395.093-13.629 25.14-13.213 25.24.422.098 15.031-25.182 15.583-25.054.538.125-13.084 24.96-12.674 25.053.416.094 14.613-25.026 15.117-24.913.492.111-12.596 25.147-11.883 25.313.735.17 14.626-25.753 15.458-25.56.798.182-13.035 25.69-12.123 25.904.961.227 15.404-26.093 15.773-25.998.367.093-12.87 25.573-12.508 25.667.368.094 15.797-25.247 16.22-25.14.405.104-13.275 25.064-12.718 25.21.572.15 15.377-25.319 15.787-25.21.401.107-13.462 25.036-12.966 25.171.52.141 15.68-25.605 16.072-25.497.385.107-14.11 25.456-13.634 25.59.496.14 16.215-25.996 16.666-25.869.436.123-14.21 25.655-13.939 25.73.278.076 15.293-25.749 15.898-25.59.588.154-13.61 25.54-13.062 25.683.563.147 15.722-25.658 16.152-25.544.417.111-13.92 25.291-13.336 25.45.598.164 16.043-25.46 16.588-25.31.53.145-13.712 25.256-13.328 25.36.397.106 15.461-25.764 16.124-25.593.633.165-13.737 24.991-13.483 25.052.26.063 14.825-25.238 15.664-25.052.818.181-13.537 25.873-12.98 25.991"/></g><g><path fill="none" stroke="#1d2329" stroke-linecap="round" stroke-linejoin="round" stroke-miterlimit="50" stroke-width="1.34" d="M67.072 48.082v3.477s-30.52 15.938-33.614 16.912c-3.095.962-15.741-1.646-15.741-1.646v0s1.217-1.692 3.65-1.959c.29-.023.603-.035.94-.023h.035c.209.023.37.034.475.034.069.012.116.012.116.012 3.477.487 8.009 1.553 10.525.87 2.515-.673 10.814-3.57 11.394-5.217.579-1.634-.29-3.952 1.067-5.308 1.333-1.333 13.503-6.827 14.175-6.584l.024.012c.196.486.092 4.636 1.065 4.056.963-.579 2.899-.579 5.889-4.636z"/></g><g><path fill="none" stroke="#1d2329" stroke-linecap="round" stroke-linejoin="round" stroke-miterlimit="50" stroke-width="1.34" d="M22.817 64.878a4.55 4.55 0 0 1-.476-.035c.15 0 .314.012.476.035z"/></g><g><path fill="none" stroke="#1d2329" stroke-linecap="round" stroke-linejoin="round" stroke-miterlimit="50" stroke-width="1.34" d="M60.094 48.65c-.673-.243-12.843 5.251-14.176 6.584-1.356 1.356-.487 3.674-1.066 5.31-.58 1.645-8.879 4.543-11.395 5.214-2.515.684-7.048-.382-10.524-.869 0 0-.047 0-.116-.01-.105 0-.267-.013-.476-.036h-.034c-.256-.035-.568-.069-.928-.139-1.53-.267-3.766-.939-4.729-2.515-1.54-2.516 3.094-1.357 5.703-.777.278.058.58.104.928.128 2.932.266 8.101-.499 10.176-1.229 2.145-.754 3.05-1.403 4.023-3.188.081-.139.15-.289.231-.44 1.055-2.12-4.45-1.832-5.9-.29-1.448 1.542-7.14 3.28-11.974 3.86-4.833.58-16.424-3.663-17.097-7.048-.08-.429-.045-.742.105-.985.985-1.657 7.07.8 12.645 1.565 6.376.87 17.294-5.703 17.294-5.703v0s.766-3.373 1.252-5.019c.476-1.6 9.46-5.448 10.027-5.69l.023-.013c.233 3.675-4.984 7.395-6.572 9.47-1.6 2.075-.29 5.483-.29 5.483v0l5.146 4.926c-.01-.116.093-.684.743-3.014.335-1.205 1.425-2.237 2.828-3.129 0 0 0-.012.011-.012 2.597-1.657 6.271-2.828 8.277-3.674.452-.186.834-.336 1.171-.452 1.97-.696 2.11-.267 2.11-.267v0l2.584 1.96v0z"/></g><g><path fill="none" stroke="#1d2329" stroke-linecap="round" stroke-linejoin="round" stroke-miterlimit="50" stroke-width="1.34" d="M21.38 64.704v0l-.013.163c-2.433.266-3.65 1.959-3.65 1.959-.122.12-2.34-.658-3.349-2.79-.955-2.017-.326-2.473-.326-2.473v0l2.585-.707c-.359.22-.406.638.023 1.333.962 1.576 3.2 2.248 4.73 2.515z"/></g><g><path fill="none" stroke="#1d2329" stroke-linecap="round" stroke-linejoin="round" stroke-miterlimit="50" stroke-width="1.34" d="M51.203 40.745c.15 1.09-2.075 5.9-5.25 10.339-.013 0-.013.012-.013.012-1.401.893-2.491 1.924-2.827 3.129-.65 2.331-.754 2.898-.743 3.015l-5.145-4.927v0s-1.31-3.408.29-5.483c1.586-2.074 6.803-5.795 6.571-9.47 0 0 .094-1.321 1.322-6.328 1.24-4.996 2.317-22.881 2.317-22.881v0l6.086 6.804v0s-2.747 24.701-2.608 25.79z"/></g><g><path fill="none" stroke="#1d2329" stroke-linecap="round" stroke-linejoin="round" stroke-miterlimit="50" stroke-width="1.34" d="M67.072 48.082l-11.3-11.104"/></g><g><path fill="none" stroke="#1d2329" stroke-linecap="round" stroke-linejoin="round" stroke-miterlimit="50" stroke-width="1.34" d="M47.726 8.15v0l4.664-2.13v0l2.076 2.13v0s-.917.043-.386 1.348c.532 1.303 2.699 3.649 2.699 3.649v0l-2.967 1.808v0L47.726 8.15v0z"/></g><g><path fill="none" stroke="#1d2329" stroke-linecap="round" stroke-linejoin="round" stroke-miterlimit="50" stroke-width="1.34" d="M58.813 3.364v0l2.56 2.656v0l1.739-.773v0l4.104 3.333v0l2.512-1.304v0l-6.52-6.037v0l-4.395 2.125v0z"/></g><g><path fill="none" stroke="#1d2329" stroke-linecap="round" stroke-linejoin="round" stroke-miterlimit="50" stroke-width="1.34" d="M60.987 23.6v0l4.685 2.415v0l1.544-17.436v0l-4.104-3.332v0L60.987 23.6v0z"/></g><g><path fill="none" stroke="#1d2329" stroke-linecap="round" stroke-linejoin="round" stroke-miterlimit="50" stroke-width="1.34" d="M56.127 28.436v0l4.86-4.836v0L63.11 5.247v0l-1.739.772v0L60.6 12.54v0l-3.928 3.09v0l-.545 12.806v0z"/></g><g><path fill="none" stroke="#1d2329" stroke-linecap="round" stroke-linejoin="round" stroke-miterlimit="50" stroke-width="1.34" d="M58.813 3.364v0l-.917 6.665v0l-2.257 1.794v0"/></g><g><path fill="none" stroke="#1d2329" stroke-linecap="round" stroke-linejoin="round" stroke-miterlimit="50" stroke-width="1.34" d="M50.632 55.408c.202.35-.26.994-1.03 1.44-.772.444-1.56.521-1.762.172-.202-.35.26-.994 1.03-1.439.772-.445 1.56-.523 1.762-.173z"/></g><g><path fill="none" stroke="#1d2329" stroke-linecap="round" stroke-linejoin="round" stroke-miterlimit="50" stroke-width="1.34" d="M67.072 48.082v3.477s-30.52 15.938-33.614 16.912c-3.095.962-15.741-1.646-15.741-1.646v0s1.217-1.692 3.65-1.959c.29-.023.603-.035.94-.023h.035c.209.023.37.034.475.034.069.012.116.012.116.012 3.477.487 8.009 1.553 10.525.87 2.515-.673 10.814-3.57 11.394-5.217.579-1.634-.29-3.952 1.067-5.308 1.333-1.333 13.503-6.827 14.175-6.584l.024.012c.196.486.092 4.636 1.065 4.056.963-.579 2.899-.579 5.889-4.636z"/></g><g/><g><path fill="none" stroke="#1d2329" stroke-linecap="round" stroke-linejoin="round" stroke-miterlimit="50" stroke-width="1.34" d="M37.711 56.683c-.08.15-.15.3-.23.44-.454.024-.906.059-1.277.093-1.287.116-1.345.383-2.747.383s-2.028 1.159-3.234 1.889c-.846.499-4.695 1.495-6.943 2.052a6.76 6.76 0 0 1-.927-.128c-1.878-.417-4.788-1.136-5.715-.556h-.01v0l-2.586.707v0s-.916.336-5.796-1.02C3.366 59.198.851 54.608.851 54.608v0l1.843-2.47v0l.151.083c-.15.243-.186.556-.105.984.673 3.385 12.264 7.627 17.097 7.048 4.834-.58 10.525-2.318 11.974-3.86 1.45-1.542 6.955-1.831 5.9.29z"/></g><g><path fill="none" stroke="#1d2329" stroke-linecap="round" stroke-linejoin="round" stroke-miterlimit="50" stroke-width="1.34" d="M37.711 56.683c-.08.15-.15.3-.23.44-.454.024-.906.059-1.277.093-1.287.116-1.345.383-2.747.383s-2.028 1.159-3.234 1.889c-.846.499-4.695 1.495-6.943 2.052a6.76 6.76 0 0 1-.927-.128c-1.878-.417-4.788-1.136-5.715-.556h-.01v0l-2.586.707v0s-.916.336-5.796-1.02C3.366 59.198.851 54.608.851 54.608v0l1.843-2.47v0l.151.083c-.15.243-.186.556-.105.984.673 3.385 12.264 7.627 17.097 7.048 4.834-.58 10.525-2.318 11.974-3.86 1.45-1.542 6.955-1.831 5.9.29z"/></g><g/><g clip-path="url(#7f8tb)"><path fill="none" stroke="#1d2329" stroke-linecap="round" stroke-linejoin="round" stroke-miterlimit="50" stroke-width="1.34" d="M12.873 52.093c.43.135 20.822-43.96 21.785-43.676.913.27-18.923 43.745-18.443 43.878.495.137 21.146-44.023 21.676-43.878.51.14-17.869 43.742-17.59 43.816.286.076 19.448-44.216 19.725-44.142.27.071-17.65 43.443-17.024 43.62.651.181 20.058-43.837 20.486-43.714.416.121-18.185 43.564-17.658 43.72.532.154 19.786-43.294 20.41-43.114.61.176-17.54 43.352-17.212 43.444.338.093 19.146-43.667 19.622-43.537.458.125-17.087 43.13-16.756 43.217.341.092 18.651-43.644 19.222-43.497.562.145-17.432 43.898-16.8 44.065.417.11 14.74-37.014 19.681-43.692-5.875 8.874-17.168 43.87-16.955 43.927.458.124 18.888-44.235 19.521-44.067.61.162-16.919 43.465-16.296 43.63.64.17 19.194-43.604 19.797-43.444.588.157-16.879 43.498-16.545 43.584.342.088 18.494-43.819 18.87-43.723.362.092-16.846 43.352-16.486 43.443.367.094 18.102-43.51 18.76-43.35.644.157-16.012 43.368-15.508 43.49.442.106 17.761-43.678 18.162-43.583.395.093-16.296 43.624-15.88 43.723.422.1 17.698-43.665 18.25-43.537.538.125-15.75 43.444-15.34 43.537.416.094 17.28-43.51 17.784-43.397.492.11-15.263 43.632-14.549 43.798.733.17 17.291-44.238 18.123-44.047.798.184-15.7 44.176-14.789 44.391.962.226 18.07-44.578 18.44-44.484.366.094-15.538 44.06-15.174 44.152"/></g><g><path fill="none" stroke="#1d2329" stroke-linecap="round" stroke-linejoin="round" stroke-miterlimit="50" stroke-width="1.34" d="M55.4 46.958c-.337.116-.72.267-1.171.452-2.006.846-5.68 2.017-8.276 3.674 3.176-4.44 5.4-9.25 5.25-10.34-.138-1.088 2.609-25.79 2.609-25.79v0l2.967-1.808v0s-1.438 33.325-1.38 33.812z"/></g><g><path fill="none" stroke="#1d2329" stroke-linecap="round" stroke-linejoin="round" stroke-miterlimit="50" stroke-width="1.34" d="M55.4 46.958c-.337.116-.72.267-1.171.452-2.006.846-5.68 2.017-8.276 3.674 3.176-4.44 5.4-9.25 5.25-10.34-.138-1.088 2.609-25.79 2.609-25.79v0l2.967-1.808v0s-1.438 33.325-1.38 33.812z"/></g><g/><g><path fill="none" stroke="#1d2329" stroke-linecap="round" stroke-linejoin="round" stroke-miterlimit="50" stroke-width="1.34" d="M65.671 26.015v0L67.216 8.58v0l2.512-1.304v0l-1.256 16.759v0l-2.8 1.98v0z"/></g><g><path fill="none" stroke="#1d2329" stroke-linecap="round" stroke-linejoin="round" stroke-miterlimit="50" stroke-width="1.34" d="M65.671 26.015v0L67.216 8.58v0l2.512-1.304v0l-1.256 16.759v0l-2.8 1.98v0z"/></g></g></svg>