<svg xmlns="http://www.w3.org/2000/svg" width="88" height="85" viewBox="0 0 88 85"><g><g><path fill="none" stroke="#1d2329" stroke-linecap="round" stroke-linejoin="round" stroke-miterlimit="50" stroke-width="1.07" d="M40.413 70.817c.105 1.974-1.316 2.08-1.316 2.08l.605 3.674c-.21 2.088-2.666 3.097-5.324 3.667v-6.324c-4.395.088-11.912-1.115-13.194-2.536-1.622-1.789-2.965-10.254-2.982-12.368-5.974-.184-9.483-3.482-9.483-3.482.808-.93 2.597-1.255 2.597-1.255s.044-3.087 1.246-3.684c4.272-1.702 11.728 2.132 13.105 2.737 1.369.605 3.509 2.58 7.395 3.456 3.895.877 3.298 2.14 5.324 4.22 2.027 2.078 1.92 7.841 2.027 9.815zM14.615 53.94l5.403-.325c-.552-.438-4.991-1.622-5.193-1.245-.01.017-.026.035-.035.061-.175.43-.175 1.51-.175 1.51z"/></g><g><path fill="none" stroke="#1d2329" stroke-linecap="round" stroke-linejoin="round" stroke-miterlimit="50" stroke-width="1.07" d="M14.868 75.861a56.109 56.109 0 0 1-1.28 3.342c-1.447-.316-3.184-.623-3.333-.658-.028-.009-.15-.21-.343-.57 1.185-1.719 1.842-4.447 1.614-7.456-.376-4.948-2.981-8.78-5.824-8.57-.613.044-1.192.281-1.71.666.009-.298.062-.544.184-.684 1.422-1.807 2.85-1.693 4.149-2.632.149-.105.255-.2.333-.289 1.588.798 4.49 2.483 5 4.456.71 2.746 2.088 9.816 1.21 12.395z"/></g><g><path fill="none" stroke="#1d2329" stroke-linecap="round" stroke-linejoin="round" stroke-miterlimit="50" stroke-width="1.03" d="M9.912 77.975c-.764 1.114-1.746 1.807-2.85 1.886-2.843.22-5.448-3.614-5.826-8.562-.289-3.877.87-7.28 2.755-8.684.518-.386 1.097-.622 1.71-.666 2.843-.21 5.449 3.622 5.825 8.57.228 3.008-.429 5.737-1.614 7.456z"/></g><g><path fill="none" stroke="#1d2329" stroke-linecap="round" stroke-linejoin="round" stroke-miterlimit="50" stroke-width="1.07" d="M37.492 73.247c-.308.438-1.5.64-3.114.667-4.395.087-11.912-1.115-13.194-2.536-1.622-1.789-2.964-10.254-2.982-12.368 0-.176.009-.307.026-.386.22-1.062 6.579-1.939 6.579-1.939 4.132.553 8.956 5.377 10.817 6.73 1.868 1.35 3 8.218 1.868 9.832z"/></g><g><path fill="none" stroke="#1d2329" stroke-linecap="round" stroke-linejoin="round" stroke-miterlimit="50" stroke-width="1.07" d="M34.377 73.914v6.325c-1.526.324-3.123.508-4.386.666-3.447.439-13.649-.877-14.684-1.263-.35-.131-1-.29-1.719-.438a56.4 56.4 0 0 0 1.28-3.343c.877-2.58-.5-9.65-1.21-12.394-.51-1.974-3.413-3.658-5-4.456.666-.737-.466-1.185-.334-2.615.027-.333.176-.623.395-.868 0 0 3.51 3.298 9.482 3.483.018 2.113 1.361 10.578 2.983 12.368 1.281 1.42 8.798 2.623 13.193 2.535z"/></g><g><path fill="none" stroke="#1d2329" stroke-linecap="round" stroke-linejoin="round" stroke-miterlimit="50" stroke-width="1.07" d="M87.246 79.273v0s-9.648 4.386-14.035 5.263c0 0-4.912-1.017-5.201-1.894-.071-.21.63-.623 1.745-1.132l.272-.114v0l2.386-.974v0l.097-.035a117.496 117.496 0 0 1 4.894-1.737c2.333-.772 4.263-1.333 4.606-1.307.947.071 5.324 1.518 5.236 1.93z"/></g><g><path fill="none" stroke="#1d2329" stroke-linecap="round" stroke-linejoin="round" stroke-miterlimit="50" stroke-width="1.07" d="M72.412 80.423v0l-2.386.974c.685-.307 1.5-.632 2.387-.974z"/></g><g><path fill="none" stroke="#1d2329" stroke-linecap="round" stroke-linejoin="round" stroke-miterlimit="50" stroke-width="1.07" d="M69.904 77.861c2.254.21 2.605 2.526 2.605 2.526"/></g><g><path fill="none" stroke="#1d2329" stroke-linecap="round" stroke-linejoin="round" stroke-miterlimit="50" stroke-width="1.07" d="M69.754 81.51c-1.807-1.412-.5-3.332-.5-3.332v0s.246-.124.65-.316c1.253-.597 4.052-1.834 5.412-1.693 1.394.14 1.93 1.772 2.087 2.482"/></g><g><path fill="none" stroke="#1d2329" stroke-linecap="round" stroke-linejoin="round" stroke-miterlimit="50" stroke-width="1.07" d="M73.135 76.693v0l-2.898-2.287v0l-4.633-10.307v0l-3.18 1.7v0s.494 2.577 2.221 4.427c0 0 2.632 5.578 3.097 6.127.466.548 1.878 1.644 1.878 1.644v0"/></g><g><path fill="none" stroke="#1d2329" stroke-linecap="round" stroke-linejoin="round" stroke-miterlimit="50" stroke-width="1.07" d="M62.835 65.223v0l-19.572-46.82v0s1.26-1.48 2.961-.987l19.08 46.683v0"/></g><g><path fill="none" stroke="#1d2329" stroke-linecap="round" stroke-linejoin="round" stroke-miterlimit="50" stroke-width="1.07" d="M46.22 17.414v0l-2.957.99v0l-2.026-4.06v0s.096-.255.237-.684c.28-.86.754-2.43 1.053-4.036.385-2.017.491-4.105-.412-4.93-.878-.596-5.817-.324-5.817-.324v0s-1.42-.894-.763-3.131c0 0 7.51 0 8.825 1.315 1.315 1.316.982 10.202 1.368 11.193.387.983.491 3.667.491 3.667v0z"/></g><g><path fill="#fff" d="M64.184 79.16c.132 1.797-1.842 2.21-3.018 2.455-1.157.247-2.447.352-3.833.352-8.675 0-20.605-4.194-21.183-4.405a1.744 1.744 0 0 1-1.062-2.235 1.742 1.742 0 0 1 2.237-1.063c.088.027 5.394 1.896 11.29 3.133-7.553-5.607-16.018-19.238-19.571-35.756-5.755-26.788 2.131-32.35 5.789-33.49 3.342-1.044 6 .079 7.694 1.474-.299 1.605-.773 3.175-1.053 4.035a1.339 1.339 0 0 1-.246-.298c-.201-.316-1.991-2.912-5.342-1.87-4.412 1.387-7.614 9.835-3.403 29.404C37.325 63.433 50 76.327 55.158 76.635a59.526 59.526 0 0 0 2.149.157c4.903.315 6.737.438 6.877 2.368z"/></g><g><path fill="none" stroke="#1d2329" stroke-linecap="round" stroke-linejoin="round" stroke-miterlimit="50" stroke-width="1.07" d="M64.184 79.16c.132 1.797-1.842 2.21-3.018 2.455-1.157.247-2.447.352-3.833.352-8.675 0-20.605-4.194-21.183-4.405a1.744 1.744 0 0 1-1.062-2.235 1.742 1.742 0 0 1 2.237-1.063c.088.027 5.394 1.896 11.29 3.133-7.553-5.607-16.018-19.238-19.571-35.756-5.755-26.788 2.131-32.35 5.789-33.49 3.342-1.044 6 .079 7.694 1.474-.299 1.605-.773 3.175-1.053 4.035a1.339 1.339 0 0 1-.246-.298c-.201-.316-1.991-2.912-5.342-1.87-4.412 1.387-7.614 9.835-3.403 29.404C37.325 63.433 50 76.327 55.158 76.635a59.526 59.526 0 0 0 2.149.157c4.903.315 6.737.438 6.877 2.368z"/></g><g/></g></svg>