<svg xmlns="http://www.w3.org/2000/svg" width="96" height="58" viewBox="0 0 96 58"><g><g><path fill="none" stroke="#1d2329" stroke-linecap="round" stroke-linejoin="round" stroke-miterlimit="50" stroke-width="1.13" d="M70.663 1.239v0l3.547 6.079v0H24.872C16.362 7.318.86 5.393.86 3.568c0-1.823 28.67-2.33 31.305-2.33h38.498v0z"/></g><g><path fill="none" stroke="#1d2329" stroke-linecap="round" stroke-linejoin="round" stroke-miterlimit="50" stroke-width="1.13" d="M39.229 7.317v0L62.76 29.808v0s15.548 19.101 21.6 26.687c.184.23.545.016.435-.256l-5.224-12.934a5.814 5.814 0 0 0-1.49-2.134L62.66 27.225v0L42.904 7.317v0"/></g><g><path fill="none" stroke="#1d2329" stroke-linecap="round" stroke-linejoin="round" stroke-miterlimit="50" stroke-width="1.16" d="M68.08 7.317v0L44.336 29.808v0S27.96 49.002 21.649 56.55c-.188.225-.544.006-.429-.264l5.49-12.97a5.812 5.812 0 0 1 1.556-2.136l16.177-13.955v0L65.666 7.317v0"/></g><g><path fill="none" stroke="#1d2329" stroke-linecap="round" stroke-linejoin="round" stroke-miterlimit="50" stroke-width="1.13" d="M24.415 8.634v0H22.44c-.506 0-1.342.025-1.443.71-.102.683.658 1.14 1.165 1.164.506.025 1.292-.354 1.317-.937 0 0 2.048 3.66 8.03 4.19 6.305.557 18.792.141 22.507-.568 3.714-.709 5.571-2.33 6.078-4.103"/></g><g><path fill="none" stroke="#1d2329" stroke-linecap="round" stroke-linejoin="round" stroke-miterlimit="50" stroke-width="1.13" d="M75.391 6.401v0l2.21 2.7a2.873 2.873 0 0 0 2.224 1.052h11.208c.51 0 .75-.627.372-.967l-3.273-2.953a2.876 2.876 0 0 0-1.925-.74H75.822a.556.556 0 0 0-.43.908z"/></g><g><path fill="none" stroke="#1d2329" stroke-linecap="round" stroke-linejoin="round" stroke-miterlimit="50" stroke-width="1.13" d="M73.534 3.839v0h14.352v0l2.871 2.127v0s-.305.867.21 1.275c.27.242.914.277.962-.305l3.3 2.23v0H92.71v0"/></g><g/><g><path fill="none" stroke="#1d2329" stroke-miterlimit="50" stroke-width=".77" d="M56.876 10.863v0H26.603a2.187 2.187 0 0 1-2.187-2.188V7.317v0h34.648v1.358c0 1.21-.98 2.188-2.188 2.188z"/></g><g><path fill="none" stroke="#1d2329" stroke-linecap="round" stroke-linejoin="round" stroke-miterlimit="50" stroke-width="1.13" d="M56.876 10.863v0H26.603a2.187 2.187 0 0 1-2.187-2.188V7.317v0h34.648v1.358c0 1.21-.98 2.188-2.188 2.188z"/></g></g></svg>