<svg xmlns="http://www.w3.org/2000/svg" width="101" height="70" viewBox="0 0 101 70"><g><g><path fill="none" stroke="#1d2329" stroke-linecap="round" stroke-linejoin="round" stroke-miterlimit="50" stroke-width="1.28" d="M41.628 51.599l8.1-34.297"/></g><g><path fill="none" stroke="#1d2329" stroke-linecap="round" stroke-linejoin="round" stroke-miterlimit="50" stroke-width="1.28" d="M53.409 14.909v0h-7.362v0l-.961-1.391v0h7.362v0l.96 1.391v0z"/></g><g><path fill="none" stroke="#1d2329" stroke-linecap="round" stroke-linejoin="round" stroke-miterlimit="50" stroke-width="1.28" d="M49.628 17.723v0l2.328-.237v0l-2.328-3.272v0h-1.64v0l1.64 3.509v0z"/></g><g><path fill="none" stroke="#1d2329" stroke-linecap="round" stroke-linejoin="round" stroke-miterlimit="50" stroke-width="1.28" d="M49.42 11.473v0s5.81-16.77 10.553-8.467c4.745 8.303-7.322 18.08-7.322 18.08v0s.246-2.332-.245-2.291c-.49.04-.736-.655-.573-1.39"/></g><g><path fill="none" stroke="#1d2329" stroke-linecap="round" stroke-linejoin="round" stroke-miterlimit="50" stroke-width="1.28" d="M43.98 29.961v0l-2.821-2.086v0h8.26v0l-2.636 1.896v0"/></g><g><path fill="none" stroke="#1d2329" stroke-linecap="round" stroke-linejoin="round" stroke-miterlimit="50" stroke-width="1.28" d="M3.774 62.764v0H.829v0-8.467 0h2.945v0z"/></g><g><path fill="none" stroke="#1d2329" stroke-linecap="round" stroke-linejoin="round" stroke-miterlimit="50" stroke-width="1.28" d="M99.75 61.292v0h-2.944v0l-3.334-6.994v0h2.945v0l3.333 6.994v0z"/></g><g><path fill="none" stroke="#1d2329" stroke-linecap="round" stroke-linejoin="round" stroke-miterlimit="50" stroke-width="1.28" d="M3.774 64.36v0l93.032-1.104v0l-3.334-8.958v0H3.774V64.36z"/></g><g><path fill="none" stroke="#1d2329" stroke-linecap="round" stroke-linejoin="round" stroke-miterlimit="50" stroke-width="1.34" d="M28.683 66.262v0l-3.19-14.663v0H41.69v0l4.498 14.16v0l-17.505.503v0z"/></g><g><path fill="none" stroke="#1d2329" stroke-linecap="round" stroke-linejoin="round" stroke-miterlimit="50" stroke-width="1.34" d="M61.016 53.377v0h-9.878v0-2.331 0h9.878v0z"/></g><g><path fill="none" stroke="#1d2329" stroke-linecap="round" stroke-linejoin="round" stroke-miterlimit="50" stroke-width="1.28" d="M3.774 62.764v0H.829v0-8.467 0h2.945v0z"/></g><g><path fill="none" stroke="#1d2329" stroke-linecap="round" stroke-linejoin="round" stroke-miterlimit="50" stroke-width="1.28" d="M99.75 61.292v0h-2.944v0l-3.334-6.994v0h2.945v0l3.333 6.994v0z"/></g><g/><g><path fill="none" stroke="#1d2329" stroke-miterlimit="50" stroke-width=".88" d="M3.774 64.36v0l93.032-1.104v0l-3.334-8.958v0H3.774V64.36z"/></g><g><path fill="#fff" d="M28.683 66.262l-3.19-14.663H41.69l4.498 14.16z"/></g><g><path fill="none" stroke="#1d2329" stroke-linecap="round" stroke-linejoin="round" stroke-miterlimit="50" stroke-width="1.34" d="M28.683 66.262v0l-3.19-14.663v0H41.69v0l4.498 14.16v0l-17.505.503v0z"/></g><g><path fill="none" stroke="#1d2329" stroke-linecap="round" stroke-linejoin="round" stroke-miterlimit="50" stroke-width="1.34" d="M61.016 53.377v0h-9.878v0-2.331 0h9.878v0z"/></g><g><path fill="#fff" d="M35.309 68.32l-6.58.259-.086-2.187 6.58-.26z"/></g><g><path fill="none" stroke="#1d2329" stroke-linecap="round" stroke-linejoin="round" stroke-miterlimit="50" stroke-width="1.34" d="M35.309 68.32v0l-6.58.259v0l-.086-2.187v0l6.58-.26v0l.086 2.188v0z"/></g><g><path fill="#fff" d="M46.334 67.886l-6.58.26-.086-2.188 6.58-.259z"/></g><g><path fill="none" stroke="#1d2329" stroke-linecap="round" stroke-linejoin="round" stroke-miterlimit="50" stroke-width="1.34" d="M46.334 67.886v0l-6.58.26v0l-.086-2.188v0l6.58-.259v0l.086 2.187v0z"/></g></g></svg>